<svg width="22" height="24" viewBox="0 0 22 24" fill="none" xmlns="http://www.w3.org/2000/svg">
<path d="M1.81641 12.002C1.81745 16.9214 5.04139 21.11 9.42012 21.881V14.892H7.13369V12.002H9.42283V9.80201C9.32049 8.75955 9.64139 7.72061 10.2985 6.96695C10.9556 6.21328 11.8808 5.82303 12.8232 5.90201C13.4996 5.91413 14.1743 5.98098 14.8419 6.10201V8.56101H13.7028C13.3106 8.50402 12.9163 8.64774 12.631 8.95168C12.3457 9.25563 12.2002 9.6869 12.2356 10.124V12.002H14.7329L14.3337 14.893H12.2356V21.881C16.9711 21.0506 20.2918 16.2518 19.792 10.9611C19.2922 5.67038 15.1468 1.73994 10.359 2.01719C5.57127 2.29444 1.81717 6.68232 1.81641 12.002Z" fill="white"/>
</svg>
