<svg width="125" height="40" viewBox="0 0 125 40" fill="none" xmlns="http://www.w3.org/2000/svg">
<path d="M53.51 31.182C53.25 31.182 53.042 31.0607 52.886 30.818C52.7473 30.558 52.678 30.246 52.678 29.882C52.678 29.31 52.7127 28.608 52.782 27.776L52.834 27.1L52.886 25.722C52.886 25.1153 52.8253 23.7633 52.704 21.666C52.5827 19.5687 52.522 18.2167 52.522 17.61C52.522 17.558 52.522 17.4627 52.522 17.324C52.5393 17.168 52.548 16.934 52.548 16.622C52.5653 16.2753 52.574 15.8507 52.574 15.348C52.574 14.0827 52.4873 13.2767 52.314 12.93C52.21 12.93 51.9847 12.956 51.638 13.008L50.91 13.06C50.6847 13.06 50.4853 12.9993 50.312 12.878C50.1387 12.7393 50.052 12.566 50.052 12.358C50.052 12.15 50.26 11.968 50.676 11.812C51.2827 11.604 52.314 11.4567 53.77 11.37C54.3593 11.3353 54.7147 11.318 54.836 11.318C55.044 11.318 55.2347 11.3873 55.408 11.526C55.5813 11.6647 55.668 11.838 55.668 12.046C55.668 12.254 55.59 12.4273 55.434 12.566C55.2953 12.6873 55.1133 12.748 54.888 12.748L54.42 12.722C54.2813 12.7047 54.1253 12.696 53.952 12.696H53.692C53.8133 13.8747 53.874 14.9407 53.874 15.894L53.848 17.558C53.8307 18.0607 53.822 18.624 53.822 19.248C53.822 20.08 53.8567 21.0767 53.926 22.238C54.0127 23.6767 54.056 24.6733 54.056 25.228C54.056 25.8867 54.0907 26.6667 54.16 27.568C54.2293 28.4867 54.264 29.2667 54.264 29.908C54.264 30.7573 54.0127 31.182 53.51 31.182ZM62.9667 31C62.3774 31 62.0827 29.57 62.0827 26.71L62.1087 25.228L62.1347 24.032V23.954V23.694C62.152 23.5553 62.1607 23.3907 62.1607 23.2C62.1607 23.1653 62.1347 23.122 62.0827 23.07C62.0307 23.018 62.0047 22.9747 62.0047 22.94V22.914C61.918 22.9487 61.762 22.966 61.5367 22.966C61.3114 22.966 61.034 22.9313 60.7047 22.862C60.6007 22.8447 60.3234 22.8013 59.8727 22.732V25.722C59.8727 26.1727 59.8987 26.8833 59.9507 27.854C60.0027 28.8073 60.0287 29.518 60.0287 29.986C60.0287 30.246 59.9594 30.4713 59.8207 30.662C59.682 30.8527 59.5 30.948 59.2747 30.948C58.9454 30.948 58.7114 30.6273 58.5727 29.986C58.434 29.3273 58.3647 28.4693 58.3647 27.412L58.4167 25.306C58.434 24.7167 58.4427 24.0927 58.4427 23.434V22.992V22.628C58.4427 22.3507 58.434 22.1687 58.4167 22.082V21.952L58.4947 20.444C58.4947 19.7853 58.4687 18.806 58.4167 17.506C58.3647 16.206 58.3387 15.2267 58.3387 14.568C58.3387 14.36 58.408 14.178 58.5467 14.022C58.6854 13.866 58.8587 13.788 59.0667 13.788C59.6214 13.788 59.8987 14.308 59.8987 15.348L59.8467 18.572C59.812 19.5427 59.7947 20.626 59.7947 21.822C60.0547 21.9087 60.5227 21.952 61.1987 21.952H62.1607C62.1954 21.848 62.2127 21.744 62.2127 21.64C62.2127 20.808 62.1607 19.5773 62.0567 17.948C61.9354 16.4227 61.8747 15.1833 61.8747 14.23C61.8747 14.0393 61.944 13.8833 62.0827 13.762C62.2387 13.6233 62.4207 13.554 62.6287 13.554C62.75 13.554 62.9234 13.5973 63.1487 13.684L63.3827 13.788C63.3827 16.2493 63.4694 19.534 63.6427 23.642L63.8767 30.22C63.8767 30.4627 63.7814 30.6533 63.5907 30.792C63.4174 30.9307 63.2094 31 62.9667 31ZM68.1941 31.338C67.9688 31.338 67.7608 31.26 67.5701 31.104C67.3968 30.948 67.3014 30.7573 67.2841 30.532V29.856V29.336C67.2668 29.18 67.2581 28.998 67.2581 28.79C67.2581 28.426 67.2321 27.8713 67.1801 27.126L67.1281 25.462C67.1281 24.6127 67.1541 23.3473 67.2061 21.666C67.2754 20.158 67.3101 18.8927 67.3101 17.87C67.3101 17.6273 67.2841 17.2633 67.2321 16.778C67.1801 16.2753 67.1541 15.9113 67.1541 15.686C67.1541 14.4553 67.5181 13.84 68.2461 13.84C68.8181 13.84 69.4768 13.9527 70.2221 14.178C70.9848 14.4033 71.3661 14.672 71.3661 14.984C71.3661 15.1573 71.2881 15.322 71.1321 15.478C70.9934 15.6167 70.8201 15.7293 70.6121 15.816C69.8841 15.556 69.2254 15.3827 68.6361 15.296C68.6534 15.556 68.6621 15.9287 68.6621 16.414C68.6621 17.1073 68.6534 17.7313 68.6361 18.286C68.5841 19.118 68.5581 19.742 68.5581 20.158L68.6361 20.574L69.0521 20.548C69.1908 20.5307 69.3641 20.522 69.5721 20.522C70.4041 20.522 70.8201 20.7647 70.8201 21.25C70.8201 21.4407 70.7421 21.6053 70.5861 21.744C70.4301 21.8653 70.2308 21.926 69.9881 21.926C69.6761 21.926 69.4334 21.9087 69.2601 21.874H68.6101C68.6448 22.3247 68.6621 22.9833 68.6621 23.85C68.6621 24.7167 68.6534 25.4967 68.6361 26.19C68.5841 27.2473 68.5581 28.036 68.5581 28.556C68.5581 29.5267 68.5754 30.012 68.6101 30.012L69.4681 29.986C69.7628 29.9687 70.1181 29.96 70.5341 29.96C71.1928 29.96 71.5221 30.168 71.5221 30.584C71.5221 30.8267 71.4094 31.0087 71.1841 31.13C70.9761 31.2687 70.7161 31.338 70.4041 31.338H68.1941ZM81.0588 31.182C80.7988 31.182 80.5908 31.0607 80.4348 30.818C80.2962 30.558 80.2268 30.246 80.2268 29.882C80.2268 29.31 80.2615 28.608 80.3308 27.776L80.3828 27.1L80.4348 25.722C80.4348 25.1153 80.3742 23.7633 80.2528 21.666C80.1315 19.5687 80.0708 18.2167 80.0708 17.61C80.0708 17.558 80.0708 17.4627 80.0708 17.324C80.0882 17.168 80.0968 16.934 80.0968 16.622C80.1142 16.2753 80.1228 15.8507 80.1228 15.348C80.1228 14.0827 80.0362 13.2767 79.8628 12.93C79.7588 12.93 79.5335 12.956 79.1868 13.008L78.4588 13.06C78.2335 13.06 78.0342 12.9993 77.8608 12.878C77.6875 12.7393 77.6008 12.566 77.6008 12.358C77.6008 12.15 77.8088 11.968 78.2248 11.812C78.8315 11.604 79.8628 11.4567 81.3188 11.37C81.9082 11.3353 82.2635 11.318 82.3848 11.318C82.5928 11.318 82.7835 11.3873 82.9568 11.526C83.1302 11.6647 83.2168 11.838 83.2168 12.046C83.2168 12.254 83.1388 12.4273 82.9828 12.566C82.8442 12.6873 82.6622 12.748 82.4368 12.748L81.9688 12.722C81.8302 12.7047 81.6742 12.696 81.5008 12.696H81.2408C81.3622 13.8747 81.4228 14.9407 81.4228 15.894L81.3968 17.558C81.3795 18.0607 81.3708 18.624 81.3708 19.248C81.3708 20.08 81.4055 21.0767 81.4748 22.238C81.5615 23.6767 81.6048 24.6733 81.6048 25.228C81.6048 25.8867 81.6395 26.6667 81.7088 27.568C81.7782 28.4867 81.8128 29.2667 81.8128 29.908C81.8128 30.7573 81.5615 31.182 81.0588 31.182ZM90.4895 31.442C90.1082 31.442 89.7615 31.026 89.4495 30.194C89.0855 29.2927 88.8168 28.3653 88.6435 27.412L88.4615 26.528C87.9588 24.0493 87.6382 22.6367 87.4995 22.29H87.1875C87.1875 22.7927 87.1788 23.252 87.1615 23.668V25.098C87.1615 27.4207 87.3262 29.232 87.6555 30.532L87.3695 31.234H86.6415L86.3035 30.844L86.3295 29.102C86.3295 27.542 86.2515 25.176 86.0955 22.004C85.9568 18.624 85.8875 16.258 85.8875 14.906C85.8875 14.074 86.1735 13.658 86.7455 13.658C87.6815 13.658 88.4442 13.9007 89.0335 14.386C89.6402 14.8713 89.9435 15.5473 89.9435 16.414V18.234C89.9435 18.494 89.9002 18.7973 89.8135 19.144C89.7268 19.4733 89.6315 19.742 89.5275 19.95L89.0335 20.886L88.6175 21.666L88.7475 22.29L89.1115 24.136C89.3542 25.4707 89.5882 26.554 89.8135 27.386C90.0388 28.218 90.3162 28.972 90.6455 29.648L90.8015 29.96C90.9748 30.3067 91.0615 30.584 91.0615 30.792C91.0615 30.9653 91.0095 31.1127 90.9055 31.234C90.8015 31.3727 90.6628 31.442 90.4895 31.442ZM87.2915 21.016C87.6728 20.8253 87.9935 20.3053 88.2535 19.456C88.5308 18.5893 88.6695 17.792 88.6695 17.064C88.6695 16.5093 88.6002 15.9893 88.4615 15.504C88.3748 15.2267 88.2275 15.0187 88.0195 14.88C87.8288 14.724 87.5862 14.646 87.2915 14.646L87.2395 14.776L87.1875 15.01L87.2395 18.078C87.2742 18.9793 87.2915 19.9587 87.2915 21.016ZM94.8035 31.338C94.5781 31.338 94.3701 31.26 94.1795 31.104C94.0061 30.948 93.9108 30.7573 93.8935 30.532V29.856V29.336C93.8761 29.18 93.8675 28.998 93.8675 28.79C93.8675 28.426 93.8415 27.8713 93.7895 27.126L93.7375 25.462C93.7375 24.6127 93.7635 23.3473 93.8155 21.666C93.8848 20.158 93.9195 18.8927 93.9195 17.87C93.9195 17.6273 93.8935 17.2633 93.8415 16.778C93.7895 16.2753 93.7635 15.9113 93.7635 15.686C93.7635 14.4553 94.1275 13.84 94.8555 13.84C95.4275 13.84 96.0861 13.9527 96.8315 14.178C97.5941 14.4033 97.9755 14.672 97.9755 14.984C97.9755 15.1573 97.8975 15.322 97.7415 15.478C97.6028 15.6167 97.4295 15.7293 97.2215 15.816C96.4935 15.556 95.8348 15.3827 95.2455 15.296C95.2628 15.556 95.2715 15.9287 95.2715 16.414C95.2715 17.1073 95.2628 17.7313 95.2455 18.286C95.1935 19.118 95.1675 19.742 95.1675 20.158L95.2455 20.574L95.6615 20.548C95.8001 20.5307 95.9735 20.522 96.1815 20.522C97.0135 20.522 97.4295 20.7647 97.4295 21.25C97.4295 21.4407 97.3515 21.6053 97.1955 21.744C97.0395 21.8653 96.8401 21.926 96.5975 21.926C96.2855 21.926 96.0428 21.9087 95.8695 21.874H95.2195C95.2541 22.3247 95.2715 22.9833 95.2715 23.85C95.2715 24.7167 95.2628 25.4967 95.2455 26.19C95.1935 27.2473 95.1675 28.036 95.1675 28.556C95.1675 29.5267 95.1848 30.012 95.2195 30.012L96.0775 29.986C96.3721 29.9687 96.7275 29.96 97.1435 29.96C97.8021 29.96 98.1315 30.168 98.1315 30.584C98.1315 30.8267 98.0188 31.0087 97.7935 31.13C97.5855 31.2687 97.3255 31.338 97.0135 31.338H94.8035ZM102.192 31.338C101.967 31.338 101.759 31.26 101.568 31.104C101.395 30.948 101.299 30.7573 101.282 30.532V29.856V29.336C101.265 29.18 101.256 28.998 101.256 28.79C101.256 28.426 101.23 27.8713 101.178 27.126L101.126 25.462C101.126 24.6127 101.152 23.3473 101.204 21.666C101.273 20.158 101.308 18.8927 101.308 17.87C101.308 17.6273 101.282 17.2633 101.23 16.778C101.178 16.2753 101.152 15.9113 101.152 15.686C101.152 14.4553 101.516 13.84 102.244 13.84C102.816 13.84 103.475 13.9527 104.22 14.178C104.983 14.4033 105.364 14.672 105.364 14.984C105.364 15.1573 105.286 15.322 105.13 15.478C104.991 15.6167 104.818 15.7293 104.61 15.816C103.882 15.556 103.223 15.3827 102.634 15.296C102.651 15.556 102.66 15.9287 102.66 16.414C102.66 17.1073 102.651 17.7313 102.634 18.286C102.582 19.118 102.556 19.742 102.556 20.158L102.634 20.574L103.05 20.548C103.189 20.5307 103.362 20.522 103.57 20.522C104.402 20.522 104.818 20.7647 104.818 21.25C104.818 21.4407 104.74 21.6053 104.584 21.744C104.428 21.8653 104.229 21.926 103.986 21.926C103.674 21.926 103.431 21.9087 103.258 21.874H102.608C102.643 22.3247 102.66 22.9833 102.66 23.85C102.66 24.7167 102.651 25.4967 102.634 26.19C102.582 27.2473 102.556 28.036 102.556 28.556C102.556 29.5267 102.573 30.012 102.608 30.012L103.466 29.986C103.761 29.9687 104.116 29.96 104.532 29.96C105.191 29.96 105.52 30.168 105.52 30.584C105.52 30.8267 105.407 31.0087 105.182 31.13C104.974 31.2687 104.714 31.338 104.402 31.338L102.192 31.338Z" fill="#26A668"/>
<g clip-path="url(#clip0_212_24)">
<path d="M20 40.0001C14.6578 40.0001 9.63534 37.9197 5.85788 34.1422C2.08032 30.3647 0 25.3423 0 20C0 14.6578 2.08037 9.63539 5.85788 5.85788C9.63534 2.08037 14.6578 0 20 0C25.3422 0 30.3646 2.08037 34.1421 5.85788C37.9197 9.63535 40 14.6578 40 20C40 25.3423 37.9196 30.3647 34.1421 34.1423C30.3647 37.9198 25.3423 40.0001 20 40.0001ZM20 0.610657C9.30865 0.610657 0.610704 9.30871 0.610704 20C0.610704 30.6912 9.3087 39.3894 20 39.3894C30.6913 39.3894 39.3892 30.6913 39.3892 20C39.3892 9.30875 30.6913 0.610657 20 0.610657Z" fill="#26A668"/>
<path d="M16.0845 3.26154C16.0832 3.24773 16.0814 3.23495 16.0802 3.22083C16.0802 3.22083 16.0791 3.23614 16.0845 3.26154Z" fill="#26A668"/>
<path d="M39.0517 20.9584C38.7538 20.6371 38.4846 20.748 38.1424 20.7274C38.0105 20.7195 37.9131 20.6971 37.8427 20.6724C37.7921 20.6446 37.7403 20.6165 37.6872 20.588L37.6869 20.5878H37.6868C37.6475 20.5667 37.6076 20.5454 37.5668 20.5241C37.5673 20.5242 37.5677 20.5245 37.5677 20.5245C37.5677 20.5245 38.1731 20.5741 38.634 20.0984C39.0948 19.6227 39.0991 18.9443 38.5733 18.7413C38.0475 18.5383 37.6382 19.3539 38.0417 19.4776C38.0417 19.4776 37.9121 18.9883 38.2585 18.9272C38.6051 18.8661 38.8347 19.1248 38.6936 19.5938C38.5641 20.0239 37.745 20.3391 36.9014 20.1955C36.5956 20.0544 36.2741 19.9212 35.9534 19.8108C35.997 19.7133 36.1118 19.5886 36.4109 19.532C36.9381 19.4321 37.1329 19.1938 37.1638 18.3929C37.1638 18.3929 37.1429 18.627 36.7234 18.7127C36.3037 18.7985 36.3239 18.9354 36.2743 19.2025C36.2247 19.4696 36.0161 19.6691 35.7479 19.7427C35.7476 19.7428 35.7472 19.7429 35.7469 19.743C35.6621 19.7165 35.5773 19.6913 35.4934 19.6689C35.0537 19.5517 34.7062 19.462 34.4064 19.4025C34.3759 19.3113 34.3815 19.1722 34.6601 19.0998C35.0937 18.987 35.4994 19.0015 35.6988 18.2366C35.8983 17.4716 35.9259 17.2605 35.9259 17.2605C35.9259 17.2605 35.573 17.8034 35.1403 17.9125C34.7077 18.0216 34.5103 18.1493 34.4169 18.6644C34.3478 19.0447 34.2173 19.2378 33.9821 19.3361C33.443 19.2786 33.012 19.3551 32.308 19.5917C32.2306 19.6177 32.1563 19.6437 32.0847 19.6695C32.095 19.5056 32.1504 19.2667 32.3509 19.0323C32.7068 18.6159 33.1225 18.3591 33.0631 17.9175C33.0038 17.4758 32.6354 16.3748 32.6354 16.3748C32.6354 16.3748 32.2653 17.2965 31.9097 17.8149C31.5541 18.3333 31.9804 18.7307 31.9479 19.0814C31.9202 19.3796 31.807 19.6569 31.6856 19.8221C30.9065 20.136 30.507 20.3852 29.9809 20.3424C29.3305 20.2894 28.9291 20.1245 28.9291 20.1245C28.9291 20.1245 30.6607 19.1391 31.1667 18.0707C31.6725 17.0024 32.2192 15.6119 33.4503 15.6598C34.6813 15.7078 34.8681 16.5179 34.6232 16.9997C34.3783 17.4815 33.4368 17.2634 33.5317 16.7435C33.6265 16.2236 34.0077 16.2856 34.1854 16.5126C34.1854 16.5126 33.8458 16.032 33.5282 16.3974C33.2106 16.7628 33.1963 17.1427 33.7096 17.3785C34.223 17.6142 34.7972 17.4687 34.9315 16.7413C34.9552 16.6132 34.951 16.4703 34.9207 16.3246C35.0701 16.4302 35.3119 16.5777 35.6244 16.687C36.1669 16.8769 36.4352 17.1865 37.153 17.6366C37.871 18.0867 38.8513 17.6135 38.8513 17.6135C38.8513 17.6135 38.5474 17.3713 37.8402 16.8095C37.1328 16.2476 36.2605 16.7958 35.7569 16.5787C35.4747 16.457 35.0751 16.1688 34.7785 15.939C34.6619 15.7238 34.4855 15.5266 34.2516 15.3886C34.3926 15.2713 34.6611 15.1122 34.9598 15.2678C35.3986 15.4963 36.4618 16.638 37.4707 15.5591C37.4707 15.5591 37.1342 15.7069 36.5628 15.2807C35.9914 14.8546 35.7541 14.6721 35.2254 14.8708C34.8477 15.0127 34.4303 15.182 34.0226 15.2804C33.7042 15.1643 33.3068 15.1494 32.8341 15.3063C32.8341 15.3063 33.0421 14.9065 33.3815 14.4361C33.6236 14.2911 33.9473 14.1443 34.2517 14.1566C34.8411 14.1805 35.645 14.8818 36.5466 13.6994C36.5466 13.6994 36.1642 13.7822 35.6021 13.606C35.04 13.4298 34.8224 13.4376 34.5209 13.7373C34.2499 14.0065 34.0086 14.1545 33.673 14.0589C34.136 13.5018 34.7464 12.9644 35.3898 12.9448C35.9211 12.9287 36.3983 13.0908 36.799 13.319C37.0067 13.6478 37.0691 14.2319 37.5119 14.8345C38.0846 15.6139 39.3254 15.7634 39.3254 15.7634C39.3254 15.7634 39.0205 14.9049 38.5764 14.2353C38.2119 13.6863 37.3683 13.3912 37.0764 13.3027C36.7746 13.019 36.4199 12.7589 36.0423 12.6301C36.0192 12.458 36.0114 12.1239 36.2613 11.9729C36.6059 11.7648 37.0219 11.6936 37.0272 11.0627C37.0326 10.4317 37.0296 9.98666 37.0296 9.98666C37.0296 9.98666 36.7948 10.6254 36.3602 10.8268C35.9254 11.0282 35.7968 11.2345 35.8319 11.6113C35.8672 11.9881 35.9087 12.4295 35.6943 12.4265C35.4799 12.4235 35.0986 11.3916 35.2446 10.9398C35.391 10.4879 36.0792 10.5002 35.8953 9.74846C35.7116 8.99672 35.6957 8.58937 35.7933 8.24799C35.7933 8.24799 34.6195 8.91291 34.6228 9.71914C34.6261 10.5254 34.9387 10.3388 34.9635 10.8693C34.9679 10.9633 34.9725 11.0733 34.979 11.1923C34.8587 11.1176 34.4482 10.8578 34.1243 10.5964C33.7408 10.2866 33.7139 9.87838 33.5616 9.54154C33.4092 9.20469 32.9712 9.20374 32.8126 9.0414C32.6538 8.87901 32.7881 8.5477 32.6122 8.44271C32.4361 8.33777 32.254 8.4192 32.254 8.4192L31.8845 8.30597C31.8845 8.30597 32.1651 8.51875 32.2099 8.63442C32.2545 8.75004 32.0713 9.14162 31.9972 9.43259C31.9229 9.72352 32.2782 10.1402 32.3234 10.1816C32.3686 10.2229 32.3428 10.3914 32.3125 10.4155C32.2897 10.4336 32.1739 10.5101 32.1184 10.5467C31.6019 10.3292 30.9079 10.2395 30.2428 10.6064C29.8881 10.8021 29.5628 11.1476 29.29 11.561C29.1981 11.4399 29.1081 11.2726 29.1332 11.1003C29.1813 10.7699 29.4944 10.479 28.986 10.1245C28.4777 9.76996 28.5577 9.47035 28.691 9.19749C28.691 9.19749 28.1082 9.6358 28.074 10.4305C28.0418 11.1778 29.0003 11.0176 29.1812 11.7338C28.7969 12.3749 28.5362 13.1426 28.4752 13.7706C28.2558 13.6529 28.0091 13.4575 27.9455 13.1569C27.825 12.5866 27.6789 11.9223 26.6732 12.1474C26.6732 12.1474 26.4059 13.0613 27.0232 13.3604C27.5632 13.6219 28.1485 13.5811 28.4633 13.9501C28.4602 14.0371 28.461 14.1211 28.4668 14.2003C28.4739 14.2941 28.4897 14.4021 28.512 14.5211C28.3203 14.597 27.9486 14.5116 27.7005 14.4307C27.2945 14.2985 26.1279 13.7554 25.5818 14.9826C25.5818 14.9826 25.9256 14.5298 26.4617 14.8431C26.9977 15.1564 27.1533 15.2276 27.6944 14.9622C28.0788 14.7736 28.3729 14.7163 28.562 14.7592C28.8648 16.0796 29.7344 18.3413 29.3777 18.7355C28.9631 19.1939 28.2718 19.3794 28.2718 19.3794C28.2718 19.3794 28.2559 19.1338 28.209 18.7675C28.2699 18.5905 28.3549 18.4057 28.4733 18.2386C28.8626 17.6888 29.2577 17.4125 28.8996 16.4661C28.8996 16.4661 28.9903 16.7868 28.6315 16.9826C28.2729 17.1786 28.1508 17.5072 28.2174 17.9249C28.2677 18.241 28.3189 18.3485 28.183 18.5747C28.1065 18.0392 27.971 17.3273 27.741 16.7302C27.7627 16.5969 27.8117 16.4677 27.909 16.3691C28.2298 16.0439 28.5262 15.672 28.1832 15.0493C28.1832 15.0493 28.1747 15.4859 27.9389 15.6567C27.7623 15.7846 27.4969 15.8062 27.4124 16.0807C27.3927 16.0519 27.3727 16.0239 27.3521 15.9971C26.5863 14.999 25.5501 15.5807 25.5651 16.1447C25.5799 16.7087 26.2841 16.8722 26.4322 16.5673C26.5804 16.2624 26.3893 16.0627 26.2266 16.0756C26.2266 16.0756 26.4663 16.3007 26.2621 16.4682C26.0581 16.6357 25.7373 16.3387 25.915 16.0376C26.0928 15.7366 26.5283 15.5668 26.9001 15.9998C27.2722 16.4328 27.6428 17.9946 27.4059 19.02C27.3045 19.4595 27.0776 19.6758 26.7452 19.7861C26.6406 19.5921 26.5594 19.3176 26.7047 19.0429C26.9723 18.5367 27.3787 17.5947 26.4082 16.9365C26.4082 16.9365 26.0636 17.4426 26.0993 17.9633C26.1347 18.4839 26.6049 18.8633 26.4639 19.4083C26.4113 19.6115 26.3631 19.7624 26.3233 19.872C25.932 19.916 25.4507 19.9031 24.8962 19.9342C24.6555 19.9477 24.4347 19.9506 24.2317 19.9456C24.1202 19.9363 23.9993 19.9294 23.8663 19.9268C23.8658 19.9268 23.8655 19.9268 23.865 19.9268C23.706 19.9183 23.3941 19.8261 23.0576 19.6622C23.1186 19.5007 23.2569 19.3457 23.5569 19.3093C24.2352 19.2271 25.0716 20.0245 25.7165 18.0342C25.7165 18.0342 25.4066 18.3235 24.7244 18.2399C24.0422 18.1562 23.8767 18.2467 23.6468 18.6782C23.4171 19.1096 23.2574 19.0965 23.0646 19.08C22.872 19.0636 23.1782 18.3541 23.5991 18.1773C24.02 18.0004 25.0738 18.2999 25.0496 16.1985C25.0496 16.1985 24.2315 16.1987 23.768 16.7938C23.3045 17.389 23.3816 18.0008 23.0976 18.3058C22.8137 18.6109 22.6862 18.1405 22.8256 17.8303C22.9651 17.5201 23.2757 16.5645 22.4158 16.0499C22.4158 16.0499 22.0437 16.7241 22.2276 17.1353C22.4114 17.5465 22.7375 18.0722 22.646 18.4783C22.6005 18.6807 22.4716 18.9565 22.3073 19.1726C22.2012 19.0788 22.1045 18.9771 22.0222 18.8683C21.9678 18.7907 21.9174 18.7095 21.8706 18.625C21.4818 17.831 21.9622 16.2409 21.9622 16.2409C22.2808 15.6263 22.7702 15.0301 23.3359 14.8654C23.4074 14.8446 23.4816 14.8259 23.5571 14.8084C23.8775 14.9712 24.0415 15.311 24.5132 15.5948C25.1771 15.9944 25.9903 15.4124 25.9903 15.4124C25.8096 15.4511 25.4674 15.3618 25.2999 15.0753C25.1324 14.7887 24.673 14.8596 24.3244 14.8939C24.1849 14.9076 23.9689 14.8451 23.7585 14.7643C24.6059 14.5887 25.5879 14.4665 25.8685 13.3308C25.9814 12.8734 25.9848 12.4751 25.946 12.1062C26.0716 11.7164 26.2419 11.3433 26.4474 11.2705C26.9064 11.1079 27.3244 11.3197 27.6617 10.4715C27.9989 9.6234 28.3993 9.34878 28.3993 9.34878C28.3993 9.34878 27.4359 9.31478 26.8005 10.0298C26.1649 10.7447 26.3631 11.1454 25.8784 11.6477V11.6477C25.7853 11.1294 25.6626 10.6488 25.7307 10.1097C25.8643 9.0527 26.5806 8.34158 27.352 8.12842C28.1234 7.91525 28.2263 8.59518 28.0829 8.83347C27.9393 9.07182 27.6651 8.96159 27.7991 8.72034C27.7991 8.72034 27.6588 8.69302 27.6289 8.87729C27.5991 9.06157 27.6996 9.23883 28.021 9.17528C28.3425 9.11172 28.6154 8.49477 28.1323 8.15845C28.1323 8.15845 28.2742 8.12184 28.5067 8.04655C28.6577 8.09118 28.8342 8.1934 28.949 8.42449C29.1855 8.89956 29.0465 10.0595 30.8333 10.032C30.8333 10.032 30.1943 9.85621 30.0819 9.24179C29.9695 8.62741 29.7574 8.46373 29.3304 8.29858C29.0203 8.17857 28.8668 8.06944 28.7604 7.96073C29.1001 7.84116 29.5451 7.66547 30.014 7.42922C30.2092 7.39227 30.4476 7.3875 30.6819 7.48648C31.2229 7.7151 31.9177 8.4039 32.6707 7.92879C32.6707 7.92879 32.3774 8.00097 32.0151 7.65469C31.6529 7.30836 31.6401 7.09534 31.1187 7.17601C30.6631 7.24647 30.5637 7.24199 30.4036 7.22097C30.4941 7.16962 30.5845 7.11608 30.6746 7.06015L30.6763 7.05943C30.6763 7.05943 30.6775 7.05853 30.6797 7.05686C30.692 7.04923 30.7043 7.04141 30.7166 7.03374C30.8157 6.97652 31.0993 6.85065 31.5559 6.94925C32.1333 7.07402 32.2205 6.91249 32.4565 6.40448C32.6927 5.89653 33.1087 5.22942 33.1087 5.22942C33.1087 5.22942 32.5291 5.67387 31.9744 5.66066C31.4197 5.64746 31.1713 6.04709 31.0687 6.37121C30.9661 6.69522 30.5656 6.83392 30.4195 6.82572C30.2732 6.81752 30.5151 6.3374 30.6462 5.96981C30.7773 5.60212 30.6803 5.10703 30.2272 4.7904C30.2272 4.7904 30.2481 5.14713 30.0873 5.44287C29.9264 5.73871 29.8873 5.98812 30.0416 6.20796C30.1958 6.4277 30.2554 6.72312 30.0116 6.98825C29.8954 7.11469 29.7315 7.2787 29.5592 7.42336C29.2252 7.55676 28.9004 7.66389 28.6371 7.70671C28.522 7.7254 28.4084 7.74375 28.2966 7.76139C28.3185 7.61888 28.3919 7.37535 28.6371 7.213C29.002 6.97152 29.4132 7.10378 29.5574 6.59067C29.7015 6.07751 29.7531 5.2412 29.7531 5.2412C29.7531 5.2412 29.492 5.81991 29.1193 5.9514C28.7465 6.0829 28.5645 6.26236 28.5856 6.63482C28.6067 7.00728 28.4923 7.13147 28.0973 7.49101C27.858 7.7089 27.5652 7.83057 27.3712 7.89294C26.9667 7.93937 26.6644 7.9502 26.5515 7.89351C26.4426 7.83877 26.5346 7.50584 26.6885 7.12656C26.8825 6.8292 27.1395 6.51171 27.385 6.38179C27.8823 6.1187 28.4141 6.44339 28.8725 5.31534C28.8466 5.36297 28.75 5.47148 28.4032 5.47835C27.9584 5.48712 27.9644 5.54385 27.7487 5.87765C27.5459 6.19127 27.3022 6.35953 27.0555 6.34022C27.1003 6.25435 27.1428 6.17611 27.1803 6.10993C27.3039 5.89243 27.5013 5.59806 27.7358 5.31796C27.7358 5.31796 28.1265 4.87322 28.6947 4.80695C29.2632 4.74068 29.5178 4.40574 29.5395 4.00978C29.5613 3.61381 29.7506 2.95038 29.7506 2.95038C29.7506 2.95038 29.3883 3.52423 29.0103 3.55464C28.632 3.58516 28.4855 3.65524 28.316 4.09474C28.1991 4.39783 28.1494 4.61714 28.0615 4.80084C28.0393 4.82073 28.0173 4.84185 27.9959 4.86459C27.6656 5.21297 27.5337 5.25097 27.4804 5.06994C27.4545 4.98183 27.5295 4.58267 27.6134 4.19615C27.652 4.05655 27.7494 3.81773 27.9868 3.68547C28.3316 3.49314 28.4242 3.13456 28.3217 2.81039C28.2194 2.48628 28.1397 2.13819 28.1397 2.13819C28.1397 2.13819 27.9003 2.32046 27.6539 2.79914C27.4072 3.27778 27.5187 3.72442 27.5344 3.89187C27.5407 3.95862 27.5252 4.0575 27.5044 4.15238C27.4743 4.20812 27.4478 4.24421 27.4285 4.24626C27.3332 4.25627 26.7098 2.91228 26.0791 2.53863C25.4485 2.16498 24.9577 2.18701 24.7262 2.54741C24.4947 2.90785 24.6337 3.46797 25.0668 3.45953C25.4998 3.45114 25.5388 3.02781 25.3773 2.84892C25.2159 2.67003 25.0157 2.87533 25.0091 3.03796C25.0091 3.03796 25.0492 2.86599 25.2239 2.91166C25.3985 2.95734 25.3821 3.25432 25.194 3.27902C25.006 3.30372 24.7541 3.14414 24.8739 2.83576C24.9936 2.52743 25.4186 2.46945 25.8621 2.70736C26.3056 2.94523 27.0603 4.03929 27.0751 4.42419C27.0803 4.55921 27.0578 4.78292 27.0022 5.06527C26.8973 4.97754 26.7761 4.82826 26.7033 4.57824C26.5547 4.06732 26.6645 3.78731 25.8143 3.68352C25.8143 3.68352 25.8627 3.69305 25.926 4.14652C25.9895 4.59998 26.1784 4.77286 26.4519 4.85148C26.6491 4.90812 26.8432 5.08653 26.9522 5.29612C26.8741 5.62772 26.7565 6.01753 26.5924 6.42966C26.3988 6.30536 26.175 6.11031 26.1445 5.86043C26.0892 5.40955 26.2894 4.67617 25.0301 4.41566C25.0301 4.41566 25.2146 4.67092 25.2218 5.10708C25.229 5.54323 25.3299 5.87212 25.8241 6.08638C26.1681 6.23552 26.4031 6.43209 26.4825 6.69232C26.4308 6.8107 26.3755 6.93018 26.3158 7.05009C26.1883 7.30645 26.0616 7.55161 25.9402 7.78514C25.7525 7.58151 25.546 7.29654 25.4707 6.97142C25.3203 6.32143 25.0674 5.19504 23.77 5.18847C23.77 5.18847 24.1645 5.41031 24.0913 5.96037C24.0181 6.51043 24.2276 6.708 24.996 7.09252C25.4911 7.34026 25.7222 7.6895 25.7862 8.08145C25.5586 8.5199 25.3622 8.90742 25.2354 9.23216C25.1999 9.10776 25.1806 8.9449 25.2141 8.74356C25.2999 8.22868 25.4594 7.87758 24.9005 7.58866C24.3417 7.29968 24.1544 7.02792 24.1544 7.02792C24.1544 7.02792 23.8948 7.28333 24.0048 7.78166C23.7238 7.59896 23.0827 7.18082 22.8984 7.04794C22.6601 6.87616 22.4786 6.68912 22.4522 6.53264C22.4257 6.37616 22.3386 6.1815 22.1231 6.15475C21.9075 6.128 21.7449 6.32653 21.7449 6.32653L21.484 6.35328C21.484 6.35328 21.7487 6.40673 21.8281 6.58614C21.9075 6.76555 21.8243 6.92584 21.8659 7.34951C21.9075 7.77322 22.4106 7.9717 22.5543 8.05185C22.6979 8.13199 22.7811 8.18163 22.8114 8.28466C22.82 8.31426 22.8157 8.35522 22.8056 8.39846C22.6569 8.36275 22.5085 8.33896 22.3627 8.33219C22.2635 8.32761 22.1729 8.33148 22.0888 8.34125C21.9629 8.25209 21.8004 8.17676 21.5939 8.12436C20.3309 7.80373 18.5004 8.62822 18.5004 8.62822C18.5102 8.55203 18.514 8.46745 18.513 8.37577C18.7822 8.0106 19.4007 7.94586 19.9148 7.40052C20.4821 6.79878 20.2174 6.32024 20.2174 6.32024C20.2174 6.32024 19.9527 6.52883 19.3173 6.64335C18.682 6.75787 18.7349 7.14721 18.6668 7.67395C18.6402 7.87987 18.5731 8.03273 18.5012 8.1432C18.4726 7.78957 18.3943 7.35413 18.3003 6.86009C18.4791 6.49712 18.8095 6.22536 19.3702 6.13186C20.2401 5.98683 20.5048 5.85705 20.5955 5.29974C20.6863 4.74249 21.1402 4.64422 21.1402 4.64422C20.7726 4.53471 20.4629 4.54157 20.1996 4.62024C20.463 4.50963 20.7146 4.41365 20.914 4.32173C21.1649 4.38734 21.1994 4.60789 21.4351 5.08348C21.7276 5.67387 22.5747 5.41937 22.9729 4.82897C23.3711 4.23863 24.2691 4.22757 24.2691 4.22757C23.3031 3.13966 22.2722 4.06561 21.826 4.22847C21.5483 4.32984 21.2733 4.28125 21.1054 4.23019C21.5097 4.03323 21.9782 3.77954 22.2605 3.39826C22.4479 3.41829 22.6837 3.56437 23.1496 3.53629C23.8254 3.49562 23.9968 2.76277 23.9968 2.76277C23.6235 3.2106 23.1295 3.24116 22.6251 3.2208C22.5204 3.21656 22.4339 3.22553 22.3613 3.24169C22.423 3.12965 22.4691 3.00797 22.4941 2.87471C22.6353 2.12145 23.2001 1.83653 23.2001 1.83653C22.2756 2.06534 22.4212 3.02461 21.5386 3.64857C21.6018 3.54759 21.6729 3.43068 21.7175 3.30224C21.8177 3.01365 21.9292 2.93579 21.6469 2.64066C21.3646 2.34554 21.4893 1.8976 21.4893 1.8976C21.0797 2.40652 21.4352 2.91548 21.484 3.28193C21.5086 3.46663 21.4448 3.63317 21.3753 3.75298C21.2757 3.81044 21.1659 3.86431 21.0418 3.91299C19.8852 4.36698 18.5759 5.34981 18.0905 5.73132C18.0885 5.71969 18.0864 5.70844 18.0845 5.69681C18.0614 5.56231 18.0422 5.42952 18.0262 5.29874C18.1815 5.06913 18.4708 4.94793 18.8534 4.9054C19.4031 4.84433 19.5998 4.55421 19.7359 4.13178C19.872 3.70941 20.1292 3.51598 20.1292 3.51598C18.8131 3.39383 18.7929 4.16745 18.6052 4.58978C18.501 4.82392 18.223 4.94698 17.9959 5.01015C17.9565 4.56007 17.9562 4.14556 17.9775 3.79937C18.1468 3.62792 18.3905 3.51226 18.6013 3.51593C18.8937 3.52103 19.1307 3.40904 19.3274 2.98661C19.5241 2.56419 19.5745 2.56934 19.5745 2.56934C18.7072 2.41662 18.7324 2.722 18.4349 3.17499C18.2894 3.39659 18.1259 3.50577 17.9966 3.55979C18.0255 3.26844 18.0696 3.04397 18.1147 2.91414C18.2433 2.54388 19.3098 1.70418 19.8165 1.60491C20.3233 1.50565 20.7242 1.68887 20.7507 2.02476C20.7771 2.36065 20.4822 2.44084 20.3045 2.36065C20.1266 2.2805 20.1985 1.98657 20.3837 1.9942C20.5692 2.00183 20.5578 2.18124 20.5578 2.18124C20.5994 2.0209 20.4632 1.76134 20.2514 1.88731C20.0397 2.01327 19.9527 2.43693 20.3762 2.57434C20.7998 2.71175 21.1023 2.20789 20.9813 1.78804C20.8602 1.36814 20.3837 1.20022 19.6527 1.37582C18.9217 1.55142 17.9105 2.67361 17.8196 2.63542C17.8013 2.62769 17.7858 2.58459 17.7727 2.52118C17.7804 2.42268 17.7945 2.32184 17.8204 2.25881C17.8855 2.10047 18.1273 1.69898 18.0265 1.15951C17.9256 0.619985 17.7441 0.371155 17.7441 0.371155C17.7441 0.371155 17.5625 0.686162 17.3659 0.971131C17.1692 1.25615 17.1541 1.63276 17.4365 1.92287C17.631 2.12264 17.6561 2.38439 17.6525 2.53167C17.6205 2.93283 17.5762 3.34362 17.5247 3.42162C17.4188 3.58196 17.3002 3.50558 17.0784 3.068C17.0639 3.03949 17.0486 3.01236 17.0327 2.98628C17.0006 2.78122 17.0167 2.55298 16.9914 2.2231C16.9548 1.74475 16.8314 1.6328 16.4683 1.49025C16.1052 1.34779 15.9187 0.68106 15.9187 0.68106C15.9187 0.68106 15.9086 1.38335 15.8127 1.77526C15.7169 2.16717 15.8682 2.56919 16.4078 2.80329C16.9473 3.03739 17.2 3.58687 17.2 3.58687C17.3478 3.92944 17.4549 4.27486 17.5121 4.52355C17.5294 4.59912 17.548 4.68799 17.5667 4.78487C17.3183 4.73019 17.1283 4.49361 17.0217 4.12783C16.9082 3.73849 16.9309 3.68504 16.496 3.54382C16.1569 3.43373 16.0939 3.29923 16.0825 3.24512C16.1995 4.47997 16.819 4.32264 17.2302 4.72709C17.4333 4.92681 17.5922 5.31267 17.6951 5.66C17.7342 6.07503 17.7262 6.42656 17.6028 6.4473C17.4749 6.46885 17.1808 6.36811 16.7964 6.20219C16.6239 6.08357 16.3719 5.87774 16.201 5.5943C15.9189 5.12644 15.843 4.97139 15.974 4.61514C16.1051 4.25889 15.9791 4.0299 15.6513 3.7907C15.3235 3.55145 15.2379 2.91023 15.2379 2.91023C15.2379 2.91023 15.0412 3.73983 15.0311 4.2823C15.021 4.82478 15.4647 4.81868 15.7522 5.16267C15.9455 5.39391 15.9455 5.65285 15.9248 5.79807C15.8202 5.74753 15.7137 5.69576 15.606 5.64317C15.3597 5.52297 15.0718 5.32182 14.7827 5.0922C14.6559 4.89992 14.5433 4.69147 14.4663 4.53375C14.3049 4.20292 14.4512 3.93316 14.668 3.76524C14.8848 3.59732 14.9201 3.34286 14.8495 3.00697C14.7789 2.67108 14.905 2.33004 14.905 2.33004C14.3655 2.50306 14.1235 2.956 14.1436 3.35301C14.1638 3.74998 14.2596 4.2895 14.1134 4.25384C13.9671 4.21822 13.6142 3.96377 13.6092 3.61772C13.6042 3.27163 13.478 2.80849 12.9284 2.65582C12.3788 2.50316 11.9401 1.89751 11.9401 1.89751C11.9401 1.89751 12.1519 2.67113 12.2338 3.23601C12.3158 3.8009 12.3536 3.98413 12.9587 4.035C13.4368 4.07524 13.6786 4.28225 13.7593 4.36755C13.7692 4.3788 13.779 4.3901 13.7889 4.40131C13.7906 4.40345 13.7915 4.40479 13.7915 4.40479L13.793 4.40588C13.865 4.48717 13.9381 4.56632 14.012 4.64332C13.8483 4.61595 13.7491 4.59068 13.3218 4.38614C12.8326 4.152 12.757 4.35563 12.2981 4.58463C11.8392 4.81367 11.572 4.6559 11.572 4.6559C12.172 5.34294 13.0595 4.8798 13.6596 4.81872C13.9194 4.79231 14.1525 4.86798 14.3335 4.96228C14.7249 5.33212 15.1108 5.63592 15.4096 5.85371C15.2728 5.92785 15.0894 5.98821 14.7488 6.01248C14.2798 6.04585 14.0227 6.14192 13.7302 6.70643C13.4378 7.27093 12.757 7.25143 12.757 7.25143C14.5067 7.81126 14.7135 6.64068 15.0866 6.24882C15.2679 6.05839 15.4717 6.0111 15.6335 6.01272C15.8401 6.15542 15.9691 6.23356 15.9691 6.23356C15.3942 6.41679 15.48 7.09877 15.7775 7.25653C16.075 7.41435 16.2262 7.27179 16.2515 7.08356C16.2767 6.89518 16.1305 6.87993 16.1305 6.87993C16.191 7.15474 15.8884 7.1802 15.8177 6.90539C15.7471 6.63057 16.0497 5.99951 16.7456 6.43714C17.4415 6.87487 17.9355 7.78075 17.7541 8.84949C17.6615 9.39455 17.3985 9.82589 17.1535 10.3026C16.8252 9.66893 17.1388 9.3381 16.7254 8.45253C16.3119 7.56696 15.3538 7.31256 15.3538 7.31256C15.3538 7.31256 15.6665 7.69932 15.7472 8.6256C15.8279 9.55184 16.3019 9.4704 16.7053 9.76558C16.886 9.89779 16.943 10.3119 16.9512 10.7287C16.8038 11.0761 16.6892 11.465 16.6649 11.9438C16.6048 13.1331 17.5347 13.545 18.3164 13.9688C18.0855 13.9847 17.8545 13.9811 17.7214 13.9261C17.3886 13.7887 16.9574 13.5826 16.7078 13.8116C16.4582 14.0406 16.0952 14.0253 15.9287 13.9337C15.9287 13.9337 16.5566 14.7429 17.328 14.552C17.8762 14.4165 18.1381 14.1347 18.5015 14.0717C18.5706 14.1114 18.6379 14.1516 18.7022 14.1932C19.414 14.6545 19.7275 15.8963 19.723 16.7334C19.723 16.7334 19.2266 18.4683 18.6013 18.794C18.5697 18.8105 18.5368 18.8256 18.5033 18.8401C18.3616 18.5585 18.2933 18.1683 18.3113 17.9159C18.3416 17.4933 18.8181 17.0789 19.1207 16.7335C19.4232 16.388 19.2568 15.6208 19.2568 15.6208C18.2585 15.8651 18.2811 16.8881 18.3265 17.2316C18.3719 17.5751 18.1071 17.995 17.9181 17.6133C17.729 17.2316 17.9861 16.6591 17.7063 15.9415C17.4264 15.2239 16.6217 14.9796 16.6217 14.9796C15.9757 17.0179 17.1012 17.0408 17.4629 17.3385C17.8246 17.6363 17.9159 18.4182 17.7214 18.3767C17.527 18.3352 17.3659 18.3004 17.2676 17.8118C17.1693 17.3232 17.0331 17.1859 16.3373 17.0637C15.6414 16.9415 15.4221 16.5675 15.4221 16.5675C15.4675 18.6974 16.5264 18.1706 17.1693 18.4531C17.497 18.5971 17.5667 18.8301 17.5565 19.0242C17.2166 19.0363 16.8995 19.0049 16.6994 18.9656C16.3972 18.8999 16.0548 18.8035 15.6666 18.6618C15.1302 18.466 14.653 18.335 14.281 18.1754C14.2742 18.0568 14.2715 17.8954 14.2799 17.6821C14.3026 17.1095 14.8774 16.8805 15.0666 16.3843C15.2556 15.8881 15.0666 15.2926 15.0666 15.2926C13.9169 15.6438 14.0379 16.682 14.1514 17.2546C14.213 17.5653 14.0518 17.8083 13.8914 17.9659C13.597 17.7594 13.4379 17.4811 13.4681 17.023C13.5387 15.9543 14.3657 14.5445 14.8599 14.2341C15.354 13.9236 15.7322 14.2188 15.8178 14.5649C15.9035 14.9109 15.5002 15.1043 15.3489 14.8804C15.1976 14.6565 15.5002 14.5089 15.5002 14.5089C15.3439 14.4478 15.0968 14.5852 15.1523 14.9262C15.2077 15.2671 15.949 15.3181 16.1306 14.7735C16.3121 14.2289 15.4649 13.3536 14.4161 14.0966C14.3879 14.1166 14.3599 14.1382 14.332 14.1603C14.3303 13.8677 14.0755 13.7675 13.9395 13.5902C13.758 13.3536 13.879 12.926 13.879 12.926C13.3571 13.4298 13.5387 13.8803 13.758 14.2925C13.8246 14.4178 13.8345 14.5585 13.8163 14.695C13.4134 15.2075 13.0692 15.8595 12.8355 16.3578C12.7689 16.097 12.851 16.0077 12.9941 15.715C13.1831 15.3282 13.1605 14.9719 12.8655 14.6742C12.5705 14.3764 12.7549 14.0915 12.7549 14.0915C12.1224 14.9058 12.4293 15.2925 12.6495 15.944C12.7164 16.1419 12.7455 16.3473 12.7528 16.5378C12.5985 16.88 12.5101 17.1146 12.5101 17.1146C12.5101 17.1146 11.8848 16.7278 11.6125 16.1578C11.3784 15.6677 12.9035 13.7256 13.5923 12.5307C13.7911 12.5454 14.0634 12.6888 14.3858 12.9871C14.8396 13.407 15.0136 13.3841 15.6338 13.239C16.254 13.094 16.4583 13.6374 16.4583 13.6374C16.2843 12.2799 14.9758 12.4604 14.5371 12.468C14.2692 12.4727 13.8782 12.4451 13.712 12.3139C13.7692 12.2048 13.8167 12.1043 13.8513 12.0151C13.8806 11.9397 13.9063 11.8582 13.9289 11.7726C14.3479 11.5074 14.9117 11.7218 15.5203 11.6283C16.2162 11.5214 16.2238 10.5519 16.2238 10.5519C15.301 10.0328 14.9606 10.6358 14.6732 11.155C14.5218 11.4286 14.221 11.5452 13.9704 11.5943C14.0963 10.9649 14.0671 10.1397 13.8788 9.40103C14.2688 8.75786 15.1643 9.19983 15.354 8.46273C15.5557 7.67901 15.112 7.07841 15.112 7.07841C15.1624 7.38379 15.1523 7.69932 14.5472 7.89275C13.9421 8.08608 14.1639 8.46273 14.1135 8.79862C14.0872 8.97389 13.9491 9.10986 13.8229 9.20031C13.6768 8.71652 13.4592 8.28327 13.1681 7.98686C12.6223 7.43132 11.9129 7.31151 11.3404 7.36905C11.2966 7.31689 11.2054 7.20785 11.1882 7.1834C11.1655 7.15093 11.1901 6.97919 11.2468 6.95249C11.3035 6.92575 11.7762 6.62614 11.7895 6.32076C11.8028 6.01543 11.7384 5.57971 11.8166 5.48044C11.8948 5.38118 12.2339 5.25774 12.2339 5.25774H11.8368C11.8368 5.25774 11.6817 5.12415 11.4775 5.17378C11.2732 5.22341 11.3073 5.586 11.103 5.69671C10.8988 5.80742 10.4677 5.67764 10.2181 5.96008C9.9685 6.24252 9.82099 6.63186 9.35203 6.8189C8.95735 6.97633 8.47695 7.10673 8.33473 7.14406C8.37645 7.03021 8.41345 6.92441 8.44568 6.83416C8.62723 6.32524 8.87935 6.60006 9.12136 5.81633C9.36338 5.03256 8.40539 4.03505 8.40539 4.03505C8.40033 4.39639 8.26417 4.78826 7.86076 5.46519C7.45741 6.14202 8.13806 6.33545 8.14821 6.8189C8.15828 7.3024 7.47758 8.19302 7.26579 8.13194C7.05401 8.07087 7.22541 7.65355 7.37164 7.29735C7.51787 6.94105 7.45231 6.7019 7.08424 6.37616C6.71617 6.05043 6.6744 5.35863 6.6744 5.35863C6.6744 5.35863 6.53966 5.79087 6.35815 6.40668C6.1766 7.02253 6.56484 7.21591 6.84223 7.52124C7.04357 7.74289 6.93677 8.06567 6.86306 8.22644C6.45346 8.23917 6.02756 8.38645 5.64671 8.57258C5.33342 8.57158 4.416 8.60705 3.89489 9.03277C3.25953 9.55188 2.70547 10.2968 2.70547 10.2968C2.70547 10.2968 3.9706 10.5214 4.76472 9.93359C5.37871 9.47917 5.613 8.92916 5.91489 8.67113C6.37651 8.56848 6.89415 8.55322 7.41197 8.72744C8.03927 8.93851 8.48077 9.64366 8.77136 10.3241C8.41278 10.3171 8.21921 10.1011 8.03226 9.75799C7.82424 9.37629 7.61246 9.30377 7.00733 9.30758C6.40226 9.3114 6.05058 9.11673 6.05058 9.11673C6.58758 10.5367 7.586 10.0939 8.17301 10.2465C8.47624 10.3255 8.75134 10.5652 8.94667 10.7786C9.1412 11.3377 9.22735 11.7886 9.22735 11.7886C8.80874 11.4948 8.41325 11.3908 8.06568 11.4088C7.6937 11.1914 7.33316 10.902 7.00361 10.6511C6.54224 10.3 6.25484 10.4068 5.56651 10.6511C4.87819 10.8954 4.59079 10.6511 4.59079 10.6511C5.26395 12.0024 6.64808 11.2084 7.14732 11.1168C7.48731 11.0544 7.70438 11.2895 7.80837 11.4457C7.53741 11.5103 7.30546 11.6496 7.12701 11.8243C6.76704 11.9595 6.28859 12.1208 5.97487 12.155C5.41514 12.2161 4.71933 11.4222 3.85708 11.7581C2.99487 12.094 2.62418 12.239 2.62418 12.239C2.62418 12.239 3.44862 12.9922 4.28818 12.7683C5.12774 12.5444 5.48327 12.323 6.07323 12.3001C6.41313 12.2869 6.69462 12.2155 6.87269 12.1573C6.79994 12.2901 6.7535 12.4279 6.73881 12.5596C6.65561 13.3077 7.17754 13.6207 7.75235 13.5444C8.32724 13.4681 8.42551 13.094 8.2213 12.6436C8.0171 12.1932 7.54056 12.5596 7.54056 12.5596C7.78267 12.3917 8.17592 12.4451 8.11546 12.9795C8.05491 13.5139 7.06412 13.4452 6.96576 12.9032C6.8674 12.3611 7.29097 11.6283 8.51629 11.9489C9.7416 12.2695 9.86766 13.7862 10.0492 14.9771C10.2308 16.168 11.6426 17.6438 11.6426 17.6438C11.6426 17.6438 11.1989 17.6846 10.5434 17.5421C10.0131 17.4268 9.69383 17.065 9.02014 16.527C8.94963 16.33 8.92031 16.0264 8.98143 15.7277C9.05328 15.3765 9.59032 15.117 9.39394 14.5063C9.19755 13.8955 9.10615 12.8878 9.10615 12.8878C9.10615 12.8878 8.41788 13.8497 8.22879 14.262C8.0397 14.6742 8.37254 15.0483 8.59939 15.5598C8.72712 15.8478 8.71105 16.0967 8.67257 16.2595C8.60983 16.213 8.54442 16.1655 8.4759 16.1171C7.85342 15.6767 7.45212 15.4736 6.90468 15.3687C6.70224 15.2029 6.63111 14.976 6.67578 14.5852C6.73624 14.0559 6.57995 13.8727 6.18661 13.6374C5.79332 13.4021 5.6068 12.7684 5.6068 12.7684C5.6068 12.7684 5.57147 12.9821 5.5412 13.7862C5.51097 14.5904 5.91437 14.6972 6.30762 14.9364C6.56031 15.0901 6.52464 15.2272 6.46757 15.3068C6.15514 15.2752 5.78655 15.2589 5.31935 15.2418C5.23005 15.2385 5.13932 15.2378 5.04797 15.2382C5.04764 15.2381 5.0473 15.2379 5.04702 15.2377C4.80496 15.086 4.65878 14.8296 4.68905 14.5548C4.71928 14.2799 4.77978 14.1527 4.39226 13.9441C4.00478 13.7354 4.05365 13.5013 4.05365 13.5013C3.84687 14.29 3.96793 14.5802 4.45705 14.8346C4.73449 14.9789 4.81068 15.1347 4.82465 15.2426C4.47646 15.2544 4.12083 15.2881 3.77807 15.3342C2.90543 15.2223 2.19289 14.6711 2.19289 14.2138C2.19289 13.715 2.49545 13.5318 2.81823 13.6946C3.14096 13.8575 2.86862 14.2951 2.86862 14.2951C3.30235 14.2951 3.14091 13.3791 2.56358 13.4198C1.98625 13.4605 1.78958 14.1221 2.1022 14.7227C2.41478 15.3233 3.025 15.4556 3.025 15.4556C3.025 15.4556 3.02553 15.4556 3.02601 15.4556C2.97957 15.4642 2.93399 15.473 2.88898 15.4818H2.88893C2.88893 15.4818 2.88889 15.4818 2.88884 15.4818C2.8281 15.4936 2.76855 15.5056 2.71052 15.5175C2.63395 15.5205 2.53149 15.5133 2.39966 15.4818C2.05681 15.3996 1.82477 15.2113 1.43653 15.4352C1.04829 15.6591 0.570747 15.9281 0.570747 15.9281C0.570747 15.9281 0.977724 16.3818 1.5223 16.2189C1.97915 16.0823 2.27694 15.7495 2.72402 15.6125C2.79963 15.6049 2.8763 15.5977 2.95387 15.591C2.76058 15.7481 2.49788 15.9813 2.2686 16.2542C1.84503 16.7584 1.96604 17.2114 2.2686 17.3182C2.57116 17.4251 2.83839 17.0892 2.73245 16.8551C2.62661 16.621 2.42994 16.7838 2.42994 16.7838C2.42994 16.7838 2.69021 16.8144 2.61302 17.0179C2.53578 17.2216 2.35423 17.2114 2.24838 17.0434C2.14244 16.8755 2.17277 16.5701 2.47523 16.3589C2.73522 16.1774 3.30731 15.7207 3.74165 15.5405C4.59975 15.5028 5.47254 15.5169 6.10303 15.5735C6.0379 15.7344 5.90479 15.983 5.69234 16.0205C5.37461 16.0764 5.04182 15.5325 4.37624 15.7918C3.71066 16.051 3.10553 16.7483 3.10553 16.7483C3.10553 16.7483 3.97279 17.191 4.62831 16.9976C5.28383 16.8042 5.46029 16.3564 6.25202 16.0255C6.5563 15.8984 6.77018 15.8187 6.91856 15.7687C7.52831 16.0143 8.08814 16.4449 8.50046 16.7922C8.31938 16.8581 8.06249 16.9023 7.80503 16.7775C7.3323 16.5485 7.03732 16.308 6.42466 16.5828C5.81205 16.8577 5.4641 16.8958 5.4641 16.8958C5.4641 16.8958 6.02756 17.6096 6.74611 17.5485C7.46466 17.4875 7.73318 16.9911 8.32696 17.0465C8.52873 17.0654 8.6987 17.0754 8.83625 17.0808C8.90467 17.1399 8.96493 17.1915 9.01528 17.2318C9.45392 17.5829 10.18 18.2394 10.876 18.1631C11.5718 18.0867 12.1315 18.2242 12.8122 18.499C13.2211 18.6641 14.5468 19.1597 15.6552 19.6318C15.659 19.6336 16.4844 20.0193 17.0075 20.4851C17.532 20.952 17.6552 21.7897 17.4625 22.7857C17.2698 23.7817 17.1278 23.9701 16.7349 23.7842C16.5615 23.7022 16.1508 23.3491 15.6842 22.9416C15.5751 22.6331 15.6301 22.4318 15.8887 22.1657C16.2498 21.794 16.1024 21.3236 15.8528 21.0106C15.6032 20.6976 15.6864 20.1632 15.6864 20.1632C15.6864 20.1632 15.2552 20.6212 15.0435 21.1633C14.8317 21.7053 15.172 21.9038 15.3763 22.316C15.4551 22.475 15.4683 22.6202 15.4538 22.7402C15.0559 22.3924 14.64 22.0315 14.309 21.7807L14.3149 21.7751C14.2506 21.7309 14.1858 21.6873 14.1208 21.6441C14.0823 21.6176 14.0451 21.5927 14.0105 21.5711C14.0104 21.5711 14.0104 21.571 14.0103 21.571C13.9634 21.5402 13.9163 21.5098 13.8693 21.4796C13.5336 20.956 13.6774 20.6461 13.5383 20.0661C13.382 19.4142 12.7164 19.1454 12.7164 19.1454C12.7164 19.1454 12.8828 19.5373 12.8223 20.0207C12.7617 20.5043 12.9837 20.5093 13.2963 20.8045C13.4659 20.9646 13.5638 21.1663 13.6192 21.3218C13.0073 20.9418 12.4243 20.6273 12.0407 20.4585C11.1734 20.0768 10.8356 19.4508 10.9012 19.0436C10.9667 18.6364 11.3096 18.499 11.5869 18.6314C11.8643 18.7636 11.8542 19.1912 11.6323 19.2829C11.4104 19.3744 11.2794 19.12 11.3449 19.008C11.4104 18.8961 11.5567 19.0487 11.5567 19.0487C11.5567 18.947 11.5012 18.8096 11.3096 18.8299C11.118 18.8502 11.0171 19.3592 11.4609 19.4508C11.9046 19.5424 12.1366 19.008 12.0054 18.6416C11.8743 18.2752 11.1885 18.0207 10.6943 18.5093C10.2002 18.9979 10.5531 19.8325 10.5531 19.8325C10.4268 19.7854 10.2953 19.7422 10.1655 19.7029C9.80311 19.5251 9.522 19.3465 9.3937 19.0488C9.26545 18.751 9.20428 18.4762 8.62947 18.5449C8.05462 18.6136 7.38899 18.3846 7.38899 18.3846C7.80498 19.2549 8.2891 19.5755 8.91687 19.5755C9.54465 19.5755 10.0451 19.7708 10.0451 19.7708H10.0452C10.4983 19.9505 10.9264 20.1541 11.328 20.3709C11.3648 20.4882 11.3861 20.6548 11.2339 20.7029C10.9919 20.7793 10.9162 20.5298 10.3817 20.428C9.84721 20.3262 9.68592 20.83 9.14635 20.6773C9.14635 20.6773 9.59008 21.3491 10.4725 21.2423C11.2735 21.1453 11.335 20.6124 12.022 20.7735C12.1811 20.8723 12.3348 20.9726 12.4834 21.0733C12.2765 21.0778 11.9149 21.1253 11.6273 21.3746C11.1986 21.7461 11.3348 22.3008 11.7785 22.3212C12.2222 22.3416 12.3432 21.8973 12.0861 21.6971C12.0861 21.6971 12.2578 22.0921 12.0081 22.1482C11.7584 22.2042 11.486 21.9897 11.6625 21.6975C11.8192 21.4379 12.4448 21.2246 12.9891 21.4329C13.2505 21.6276 13.4911 21.8204 13.7101 22.0058C13.8002 22.1443 13.9814 22.3703 14.3446 22.7277C14.2522 22.7295 14.151 22.7184 14.0476 22.6826C13.6795 22.5554 13.1199 22.1381 12.3281 22.5045C12.3281 22.5045 12.782 23.2781 13.6291 23.1611C14.0625 23.1012 14.3136 22.9629 14.5151 22.8923C14.5387 22.9147 14.5624 22.9371 14.5872 22.9603C15.5957 23.9041 13.656 23.6278 12.6492 23.3284C12.2892 23.2212 11.9875 23.0905 11.8138 22.9499C11.239 22.4842 10.5053 21.7743 8.68239 21.1406C8.32329 21.0158 7.95364 20.9297 7.58624 20.8725C7.43977 20.6822 7.32525 20.4548 7.36253 20.2704C7.43815 19.8963 7.77094 19.8008 7.96008 19.9192C8.14912 20.0375 8.11889 20.3467 7.91846 20.3696C7.71807 20.3925 7.73695 20.2028 7.73695 20.2028C7.73695 20.2028 7.60836 20.5299 7.91846 20.547C8.2286 20.564 8.41016 20.0871 8.0622 19.8276C7.71425 19.568 7.26804 19.7589 7.14703 20.1253C7.07556 20.3416 7.15704 20.6263 7.2451 20.8273C7.08166 20.8094 6.91946 20.7966 6.7597 20.7885C6.71259 20.7367 6.65657 20.6765 6.58982 20.6063C6.23681 20.2347 6.13092 20.0006 6.21164 19.6749C6.29231 19.3492 6.34275 19.0387 5.89902 18.7893C5.45528 18.54 5.2485 18.0769 5.2485 18.0769C5.2485 18.0769 5.22838 18.4789 5.21828 19.1291C5.20822 19.7793 5.91413 19.9294 6.12596 20.2704C6.23577 20.4472 6.25994 20.6359 6.25794 20.7771C5.61944 20.7797 5.04449 20.845 4.61639 20.9147C4.49815 20.7974 4.33137 20.5589 4.53248 20.2704C4.81993 19.8581 5.09722 19.8175 4.91071 19.3085C4.72414 18.7996 4.64347 18.5859 4.64347 18.5859C4.64347 18.5859 4.62326 18.8786 4.39641 19.1292C4.16946 19.3798 3.99301 19.5426 4.1594 19.9193C4.3258 20.2959 4.36108 20.4245 4.24007 20.752C4.24007 20.752 3.74594 20.5351 3.74594 20.1534C3.74594 19.7717 3.88201 19.0693 3.36266 18.8302C2.84326 18.5909 2.12218 18.8149 1.74405 18.255C1.74405 18.255 1.58771 19.2881 2.31384 19.9599C3.03993 20.6318 3.48366 20.133 3.68539 20.5707C3.79038 20.7985 3.86494 20.9526 3.91267 21.0487C3.27016 21.1414 2.57631 20.9502 2.17267 20.8659C1.73394 20.7743 1.58771 20.591 1.58771 20.3722C1.58771 20.1534 1.77428 20.1127 1.89028 20.189C2.00623 20.2654 2.05162 20.4231 1.90034 20.4638C1.7491 20.5045 1.70872 20.2959 1.70872 20.2959C1.62805 20.3875 1.73394 20.7031 2.01629 20.5097C2.29868 20.3163 1.9432 19.8582 1.65575 19.9803C1.36835 20.1025 1.3078 20.5148 1.62552 20.843C1.9432 21.1713 2.85842 21.3392 2.85842 21.3392C2.75853 21.3764 2.65736 21.4202 2.55781 21.4675C2.3783 21.4081 2.07102 21.3449 1.70872 21.4308C1.12881 21.5682 0.281677 22.7286 0.281677 22.7286C0.281677 22.7286 1.11875 22.9679 1.76917 22.5505C2.41916 22.1335 2.79596 21.7378 3.26759 21.6047C3.80592 21.5087 4.46854 21.4266 5.25608 21.3926C5.32975 21.3895 5.40245 21.3875 5.4745 21.3863C5.28007 21.5383 5.00625 21.7374 4.76448 21.782C4.35102 21.8584 4.07363 21.7158 3.77612 22.2908C3.47866 22.866 3.38283 22.9474 3.08031 22.8965C3.08031 22.8965 3.38287 23.5226 4.37624 22.8456C5.20822 22.2787 5.17751 21.6335 5.77653 21.3879C7.95035 21.4374 9.32285 22.3723 9.32285 22.3723C8.87339 22.3512 8.46313 22.4335 8.09896 22.5564C7.98539 22.5392 7.86286 22.5016 7.76722 22.4232C7.52521 22.2248 7.4042 21.8278 6.86711 21.9613C6.33012 22.0949 5.80443 22.0988 5.80443 22.0988C5.80443 22.0988 5.92476 22.6217 6.58505 22.6255C7.20877 22.6291 7.6178 22.3639 7.82377 22.6596C7.26889 22.8881 6.84223 23.1818 6.57461 23.268C6.10065 23.4207 5.62664 23.3189 5.49552 23.1561C5.36441 22.9931 5.52074 22.7082 5.71236 22.6878C5.90393 22.6674 5.9897 22.7947 5.9846 22.9372C5.97959 23.0797 5.78297 23.1 5.78297 23.1C5.97964 23.2018 6.29226 22.866 5.93926 22.6267C5.5863 22.3875 5.20307 22.8125 5.35435 23.2018C5.50558 23.5912 6.13345 23.469 6.13345 23.469C6.13345 23.469 5.83089 23.6751 5.08206 23.7591C4.64066 23.8086 4.00497 23.8554 3.55723 23.8855C3.45506 23.7316 3.1258 23.3178 2.54065 23.324C1.8221 23.3316 0.596779 24.5606 0.596779 24.5606C0.596779 24.5606 1.32291 24.9652 2.13982 24.9347C2.92431 24.9054 3.41482 24.3556 3.57316 23.9874C3.66632 24.0008 3.76105 24.0148 3.85479 24.0292C3.30144 24.4705 3.02477 25.5302 3.02477 25.5302C1.88265 26.1714 2.69956 27.4997 2.69956 27.4997C3.8719 26.4539 3.21386 25.6142 3.21386 25.6142C3.33396 24.9232 3.9304 24.3048 4.17132 24.0793C4.54907 24.1405 4.84763 24.1942 4.84763 24.1942C4.62068 24.3927 4.26525 25.0645 4.16689 25.5607C4.06853 26.0569 4.30305 26.6142 4.71146 26.7974C5.11987 26.9806 5.75522 26.8585 5.87628 26.3012C5.99728 25.744 5.63422 25.4996 5.36193 25.5454C5.08959 25.5912 5.05937 25.8737 5.05937 25.8737C5.13498 25.6828 5.4981 25.5149 5.58129 25.9348C5.66449 26.3546 5.27873 26.576 4.90055 26.4844C4.52237 26.3928 4.28031 25.9424 4.48452 25.4462C4.68514 24.9587 5.39039 24.0746 6.54796 23.6238C6.68689 23.6643 6.92881 23.7749 6.95026 24.0568C6.98059 24.4537 6.23171 24.8736 6.29226 25.5989C6.35277 26.3241 6.73848 26.8766 6.73848 26.8766C6.73848 26.8766 7.52516 26.3928 7.60836 25.6218C7.69156 24.8508 7.19237 24.5836 7.16205 24.2858C7.13921 24.061 7.07361 23.6492 7.23156 23.3887C7.61618 23.2701 8.01486 23.1669 8.39271 23.0898C8.40758 23.1506 8.4256 23.2249 8.44792 23.3163C8.56892 23.8125 8.21344 24.0797 8.04699 24.7286C7.8806 25.3775 8.50089 26.0264 8.50089 26.0264C9.58245 24.7057 8.78829 24.2248 8.68239 23.8584C8.61517 23.6259 8.80388 23.2428 8.95077 22.9938C9.39265 22.9334 9.7714 22.924 10.0136 22.988C10.3737 23.0832 10.797 23.3795 11.2724 23.7462C11.2473 23.8584 11.1898 24.002 11.0574 24.0465C10.8305 24.1229 9.78666 23.8685 9.78165 25.156C9.78165 25.156 10.4825 25.2476 10.7346 24.8965C10.9552 24.5892 11.0861 23.9839 11.6105 24.0103C11.6656 24.0535 11.721 24.0971 11.7772 24.1412C11.9928 24.3102 12.217 24.4838 12.4491 24.6522C12.5697 24.7396 12.6978 24.8074 12.8308 24.8594C12.8748 25.0196 12.9084 25.2343 12.8046 25.3164C12.6306 25.4538 12.2676 25.6828 12.0407 25.6293C11.8138 25.5759 11.012 25.2019 10.4523 25.7439C9.8926 26.2859 9.66565 27.2859 9.66565 27.2859C9.66565 27.2859 10.9439 27.4157 11.4734 27.0111C12.0029 26.6065 11.9424 26.011 12.26 25.866C12.5778 25.7209 13.4173 25.1667 13.4173 25.1667V25.8965C13.4173 25.8965 12.8878 26.1466 12.782 26.8765C12.676 27.6066 13.4173 28.5608 13.4173 28.5608C13.4173 28.5608 14.1812 27.8203 14.2493 27.1179C14.3173 26.4156 13.8031 25.9652 13.8031 25.9652C13.8031 25.9652 13.7913 25.408 13.9409 25.1102C13.9409 25.1102 14.5594 25.6445 14.809 26.0263C14.809 26.0263 14.1132 26.8202 15.4066 27.3469C15.4066 27.3469 15.6184 27.179 15.452 26.5301C15.2856 25.8812 14.9679 26.1026 14.6804 25.6064C14.5279 25.3432 14.4441 25.1278 14.3984 24.9832C14.8483 24.9434 15.2521 24.8883 15.52 24.9575C16.1705 25.1254 16.4881 25.5224 16.6697 26.4538C16.8512 27.3851 16.7453 27.8126 17.0932 28.7745C17.4412 29.7364 17.5059 30.5482 17.4907 31.5865C17.4756 32.6247 15.8977 33.8008 15.111 33.984C14.3244 34.1672 14.7333 33.8893 13.3264 33.5381C11.9196 33.187 11.2086 34.4236 11.2086 34.4236C10.6791 33.9351 10.4523 34.1336 8.47056 34.0419C6.48889 33.9503 4.02309 31.3701 4.02309 31.3701C4.02309 31.3701 5.59131 33.9809 6.5595 34.3269C7.52764 34.6731 9.52448 34.8563 9.52448 34.8563C9.52448 34.8563 8.61055 35.1515 8.01867 35.8793L8.65455 36.3368C8.65455 36.3368 9.38331 35.5892 10.9162 35.6299C12.4491 35.6706 13.7803 35.5281 13.7803 35.5281C13.7803 35.5281 10.775 36.7495 9.66565 36.77L11.4406 37.6249C11.4406 37.6249 13.7602 37.5027 14.6477 36.9939C15.5351 36.4849 16.4629 36.0778 17.532 35.3856C18.6009 34.6934 18.8228 33.7978 18.8228 33.7978C18.8228 33.7978 18.6413 35.3856 17.532 36.2406C16.4226 37.0956 15.5149 37.5842 14.6275 37.8489C13.74 38.1134 11.854 38.1251 11.854 38.1251L15.2858 39.2658C15.2858 39.2658 16.5033 38.9888 17.3504 38.5002C18.1976 38.0117 18.7422 37.5435 18.7422 37.5435C18.7422 37.5435 18.3086 38.9353 17.7135 39.2658C17.1184 39.5964 18.48 39.5996 18.48 39.5996C18.48 39.5996 19.2162 38.6836 19.3624 37.9915C19.5086 37.2992 20.2145 36.6275 20.3557 35.4264C20.3557 35.4264 20.6784 36.6071 20.4767 37.1771C20.275 37.7472 20.6381 38.0932 21.1625 38.3579C21.6869 38.6225 21.9229 39.6289 21.9229 39.6289L24.4863 39.1519C24.4863 39.1519 24.5062 37.4011 23.2377 37.1975C23.2377 37.1975 25.0303 37.0143 26.1119 38.4392L27.5883 38.064C27.5883 38.064 27.1732 37.2382 25.8016 36.8513C25.8016 36.8513 26.7093 36.0982 27.7784 36.4239C28.8473 36.7496 30.0594 37.004 30.0594 37.004L31.4488 35.9658C31.4488 35.9658 29.2657 34.7139 27.0597 35.2839C27.0597 35.2839 30.2991 34.098 32.0137 35.7673L34.4328 32.9251C34.4328 32.9251 33.1636 33.8793 31.4896 33.6756C29.8154 33.4721 29.1095 33.1667 27.8388 33.8182C26.5682 34.4696 26.2656 34.5306 24.2688 33.8995C22.2719 33.2686 22.6179 32.3116 22.6466 31.1921C22.6753 30.0724 22.2997 29.1444 21.9289 28.5609C21.5564 27.9743 21.1726 26.8797 22.5845 26.4539C23.137 26.2871 23.505 26.5195 24.0597 26.53C23.999 26.5979 23.9291 26.6706 23.8478 26.7472C23.4399 27.132 23.2069 26.8331 22.8684 27.396C22.53 27.9589 22.6795 28.1773 22.6795 28.1773C24.0322 28.0507 23.6092 27.1055 23.6092 27.1055C23.8648 26.8894 24.3382 26.6517 24.5584 26.5466C24.6005 26.5484 24.6425 26.5503 24.6841 26.552C24.7116 26.8753 24.5628 27.3351 24.5628 27.3351C24.5628 27.3351 23.9567 27.6119 23.8212 28.2919C23.6857 28.9719 24.1872 29.8863 24.1872 29.8863C24.1872 29.8863 25.147 29.2002 25.2551 28.4834C25.3631 27.7667 24.9411 27.3803 24.9411 27.3803L25.1477 26.6939C25.1477 26.6939 25.7722 27.4547 26.0267 27.6817C26.2813 27.9089 26.0564 28.4515 26.4347 28.9832C26.8129 29.5148 28.0391 29.7573 28.0391 29.7573C28.0391 29.7573 28.1111 28.752 27.7437 28.0825C27.3762 27.4131 26.5243 27.5362 26.2979 27.5217C26.0716 27.5072 25.7986 27.1882 25.6755 27.0094C25.5985 26.8973 25.7039 26.6905 25.7933 26.5515C25.9659 26.5337 26.1245 26.5024 26.2655 26.4504C26.7431 26.2741 26.9094 26.2141 26.9608 26.1963L26.9643 26.1972C26.9643 26.1972 26.9646 26.197 26.9651 26.1969C27.0297 26.1717 27.0932 26.1464 27.1565 26.1217C27.652 26.2464 27.6023 26.8531 27.7207 27.205C27.8559 27.6072 28.5341 27.721 28.5341 27.721C28.8938 26.5085 27.8505 26.4501 27.6609 26.3136C27.5504 26.2339 27.5375 26.0823 27.5458 25.9697C28.092 25.7603 28.5699 25.6024 28.9319 25.6157C29.1753 25.6245 29.5251 25.7414 29.9194 25.9242C29.9855 26.2004 30.0526 26.6145 29.9243 26.8141C29.7221 27.1284 28.847 27.3542 29.4797 28.9048C29.4797 28.9048 30.2405 28.4714 30.2694 27.8136C30.2981 27.1559 30.0429 26.8033 30.296 26.3709C30.3427 26.2914 30.3804 26.2267 30.4115 26.1738C30.7414 26.354 31.0832 26.5649 31.4077 26.7861C31.4807 27.0764 31.303 27.4448 31.2182 27.6496C31.1058 27.921 30.5656 28.03 30.4248 28.7789C30.2839 29.5279 30.879 30.2073 30.879 30.2073C30.879 30.2073 31.3944 29.7977 31.6559 29.1328C31.9175 28.4679 31.3396 27.8593 31.48 27.4946C31.5799 27.2357 31.8363 27.2008 31.977 27.2022C32.9266 27.9564 33.3327 28.9891 33.3815 29.5048C33.4309 30.0298 33.0783 30.3844 32.7005 30.3627C32.3226 30.341 32.0263 30.0227 32.2226 29.6515C32.4187 29.2804 32.7091 29.5418 32.7256 29.7429C32.7256 29.7429 32.7773 29.4687 32.5368 29.348C32.2964 29.2271 31.8895 29.3533 31.8443 29.912C31.7994 30.4707 32.3559 30.7669 32.788 30.711C33.2198 30.6552 33.5957 30.1979 33.6446 29.7032C33.6936 29.2084 33.5529 28.4751 33.3979 28.2238C33.3979 28.2238 33.691 28.2584 34.0599 28.3084C34.2202 28.5894 34.6002 29.3411 34.5165 30.0253C34.5165 30.0253 33.6665 30.6274 34.4614 31.9455C34.4614 31.9455 35.5975 30.9292 34.7161 30.0002C34.7161 30.0002 34.7587 28.9246 34.3686 28.3517C34.4598 28.3649 34.552 28.3787 34.6424 28.3927C34.6856 28.7842 34.9865 29.4412 35.7082 29.6926C36.4598 29.9544 37.2499 29.781 37.2499 29.781C37.2499 29.781 36.4575 28.2754 35.7911 28.0632C35.2482 27.8905 34.8247 28.1858 34.6861 28.3015C34.278 28.1454 33.6997 27.9201 33.3029 27.7476C32.6298 27.455 32.4066 27.1748 32.4066 27.1748C32.4066 27.1748 32.9562 27.4688 33.2072 27.1457C33.4582 26.8227 33.2219 26.3136 32.8257 26.4379C32.4295 26.5623 32.6253 26.9674 32.8372 26.9277C32.8372 26.9277 32.6599 26.8525 32.6956 26.7171C32.7311 26.5815 32.8469 26.4863 33.0197 26.5602C33.192 26.634 33.2569 26.9466 33.0887 27.0623C32.9206 27.1781 32.4508 27.1387 32.0529 26.8599C31.8283 26.7024 31.5143 26.3046 31.0626 25.9313C31.338 25.7119 31.6436 26.078 32.2251 26.2526C32.8405 26.4372 33.1006 25.9798 33.1006 25.9798C33.1006 25.9798 32.6125 25.8261 32.1505 25.5474C31.6886 25.2685 31.4636 25.6074 31.1822 25.725C31.071 25.7716 30.9462 25.7719 30.8357 25.7557C30.5316 25.5362 30.1732 25.3419 29.7489 25.2335C29.7489 25.2335 31.2908 24.7457 33.3277 25.3191C33.8157 25.721 33.6044 26.3191 34.2182 27.0898C34.9511 28.0098 35.4099 27.5073 35.4099 27.5073C35.1139 27.4688 35.0478 27.365 34.9337 26.7391C34.8197 26.1134 34.5212 26.1683 34.158 25.9786C33.9458 25.8676 33.747 25.6021 33.6092 25.4039C33.6758 25.4255 33.743 25.4481 33.8106 25.4721C34.5339 25.7287 35.1273 25.9949 35.6011 26.2387C36.0023 26.4985 36.241 26.9781 36.7278 27.5559C37.215 28.134 38.0617 28.1476 38.0617 28.1476C38.0617 28.1476 37.6018 26.8146 37.1011 26.5199C36.7882 26.3358 36.4844 26.3076 36.3005 26.3123C36.2213 26.2393 36.1394 26.1692 36.0571 26.1058C36.0571 26.1058 36.9563 26.2089 37.3449 25.9907C37.7333 25.7727 37.7937 25.3676 37.5607 25.1708C37.3279 24.9738 36.8675 25.3033 37.0755 25.5657C37.2835 25.8282 37.4714 25.5616 37.4222 25.4524C37.4222 25.4524 37.3256 25.6372 37.1963 25.5557C37.0671 25.4742 37.1541 25.3388 37.2835 25.3001C37.4131 25.2614 37.5751 25.3529 37.5131 25.5587C37.4513 25.7646 37.2634 25.8952 36.8291 25.8563C36.4297 25.8204 35.7298 25.8024 35.1581 25.5317C35.2297 25.455 35.3429 25.3313 35.5049 25.147C35.8164 24.793 36.0883 25.3886 36.9541 24.9638C37.8201 24.539 37.9669 23.5229 37.9669 23.5229C37.4565 23.9414 36.8489 23.5252 36.2978 23.6019C35.7468 23.6787 35.6748 24.3782 35.5667 24.7373C35.4586 25.0962 34.9374 25.1594 34.9374 25.1594C34.9175 24.8167 34.9868 24.7059 35.2482 24.3991C35.5097 24.0923 35.3915 23.8889 35.2514 23.5884C35.1111 23.288 35.1751 23.0069 35.1751 23.0069C35.1751 23.0069 35.0395 23.1849 34.7219 23.6103C34.4042 24.0359 34.6508 24.1533 34.8016 24.623C34.9071 24.9516 34.6844 25.1284 34.541 25.205C34.1625 25.0173 33.646 24.7918 33.0524 24.6074C33.0906 24.474 33.1665 24.3035 33.3187 24.1684C33.6123 23.908 34.3117 23.9683 34.4864 23.354C34.6611 22.7395 34.7561 22.3556 34.7561 22.3556C34.7561 22.3556 34.4326 22.7323 33.949 22.8402C33.4654 22.9482 33.4246 23.2545 33.4074 23.584C33.3904 23.9133 33.2256 24.1034 32.792 24.3521C32.71 24.3991 32.6408 24.4398 32.5824 24.475C32.4314 24.4371 32.2768 24.4028 32.1196 24.373C32.2584 24.2091 32.4148 23.9646 32.4095 23.7407C32.4006 23.3616 32.0394 23.0547 31.6421 23.1996C31.2449 23.3445 31.2789 23.8449 31.5723 23.9172C31.8656 23.9897 31.8386 23.6452 31.8386 23.6452C31.8386 23.6452 31.8025 23.8292 31.6224 23.7505C31.4424 23.6717 31.5018 23.3723 31.7111 23.315C31.9207 23.2576 32.2034 23.4422 32.1679 23.8157C32.1505 23.9999 31.9794 24.181 31.7893 24.3182C31.4312 24.2673 31.0629 24.2427 30.6933 24.2577C28.8176 24.3336 27.934 24.7921 27.2674 25.0661C27.0659 25.1488 26.7481 25.1858 26.3827 25.1838C26.3827 25.1838 26.0842 25.1252 25.3144 25.1489L22.6951 24.954C22.917 24.7678 23.1919 24.5666 23.463 24.4205C23.5612 24.3812 23.6749 24.3275 23.7698 24.2806C23.9198 24.2269 24.106 24.1633 24.305 24.0969C24.5979 24.0008 24.763 24.3952 25.5182 24.747C26.2735 25.0988 26.9147 24.5006 26.9147 24.5006C26.2816 23.9302 25.6427 24.163 25.2643 24.1777C24.9887 24.1884 24.772 24.0511 24.6742 23.9753C24.7228 23.9594 24.7716 23.9436 24.82 23.928C25.2461 23.8113 25.5515 23.735 25.5515 23.735C25.8652 23.5916 26.2177 23.4443 26.6031 23.3042C27.1684 23.2637 27.6901 23.6428 27.7625 23.9314C27.8441 24.2567 27.5299 24.3808 27.3134 24.2568C27.0968 24.1328 27.3684 23.8103 27.3684 23.8103C27.0725 23.9253 27.0593 24.3776 27.478 24.4851C27.8968 24.5924 28.1803 24.1096 27.8866 23.6378C27.6894 23.321 27.3662 23.1735 27.175 23.1104C27.3419 23.0579 27.5134 23.0076 27.6896 22.9599C28.3744 23.0042 28.2808 23.5231 28.9987 23.8428C29.7897 24.195 30.3927 23.6898 30.3927 23.6898C29.8474 23.6795 29.8399 23.1596 29.3136 23.1028C28.7874 23.0461 28.6464 23.259 28.4428 23.1182C28.3147 23.0297 28.3818 22.879 28.4491 22.7793C28.8843 22.6898 29.3401 22.6205 29.8127 22.5807H29.8128C29.8128 22.5807 30.3339 22.5398 30.918 22.7188C31.5023 22.8979 32.0435 22.7344 32.677 22.0346C32.677 22.0346 31.9928 22.0601 31.4773 21.8315C30.9617 21.6029 30.8271 21.844 30.6235 22.0874C30.4199 22.3308 30.1076 22.4185 29.72 22.4824C29.7199 22.4824 29.7198 22.4824 29.7198 22.4826C29.5879 22.4824 29.4536 22.4857 29.3227 22.4939C29.3227 22.4939 29.8874 21.8094 29.5659 21.209C29.2444 20.6085 28.5341 20.6522 28.3084 20.9595C28.0826 21.2667 28.1472 21.8355 28.586 21.8759C29.0249 21.9164 29.0751 21.4088 28.9025 21.3351C28.7301 21.2612 28.6395 21.3747 28.6108 21.4705C28.6108 21.4705 28.79 21.3685 28.8194 21.4926C28.8486 21.6165 28.6547 21.8186 28.4742 21.6691C28.2936 21.5196 28.4053 21.1145 28.7007 21.0692C28.9962 21.0239 29.2764 21.2509 29.2222 21.6526C29.1679 22.0542 28.6764 22.5466 27.7612 22.6583C27.4045 22.7018 26.8712 22.8078 26.2862 22.9573C26.2851 22.9575 26.2842 22.9577 26.2831 22.9579C26.229 22.9713 26.1492 22.9914 26.0503 23.0167C26.146 22.8869 26.2934 22.727 26.4948 22.6256C26.8693 22.4371 27.0772 22.4957 27.1577 22.0237C27.2382 21.5516 27.5041 21.2306 27.5041 21.2306C27.5041 21.2306 26.8086 21.2934 26.4785 21.862C26.1879 22.3626 26.2304 22.6934 25.7846 23.0849C25.299 23.2096 24.6036 23.3882 24.0841 23.51C24.0986 23.4911 24.1141 23.4724 24.1314 23.4539C24.4381 23.1245 24.811 23.0348 24.7673 22.4646C24.7236 21.8943 24.452 21.3406 24.452 21.3406C24.452 21.3406 24.3783 21.867 24.0575 22.0902C23.7365 22.3134 23.4661 22.7137 23.697 23.1664C23.7768 23.3226 23.8159 23.451 23.8151 23.5713C23.2754 23.6898 22.0538 23.903 21.4626 24.0047C21.346 23.7973 21.2335 23.4671 21.2927 23.0067C21.3947 22.2139 23.3679 21.18 23.8564 20.9691C23.9852 20.9355 24.0613 20.9183 24.0613 20.9183C25.3021 20.7532 27.0979 20.6405 27.5979 20.5953C28.309 20.531 28.8688 20.5614 29.4948 20.8317C30.1206 21.102 30.9822 20.6916 31.4899 20.4864C31.5481 20.4629 31.6188 20.4317 31.6991 20.3955C31.8287 20.4297 31.9897 20.4688 32.1828 20.5086C32.751 20.6258 32.8605 21.1693 33.5119 21.4317C34.1632 21.6941 34.8896 21.1835 34.8896 21.1835C34.8896 21.1835 34.5767 21.0483 34.0842 20.6151C33.592 20.1819 33.2494 20.3239 32.7446 20.4044C32.4698 20.4483 32.2431 20.3335 32.0933 20.2198C32.5753 20.0109 33.2182 19.7656 33.855 19.7085C33.9789 19.7979 34.1552 19.9336 34.4027 20.1402C35.0457 20.6771 35.0832 21.1487 35.6384 21.5177C36.1938 21.8866 37.1263 21.7175 37.1263 21.7175C37.1263 21.7175 36.7604 20.8891 36.2145 20.4554C35.6684 20.0217 35.2047 20.4383 34.9249 20.2951C34.7378 20.1993 34.6843 19.9275 34.6693 19.7575C35.272 19.8842 36.0882 20.1199 36.8761 20.4001C37.2293 20.6935 37.6324 21.2863 37.8229 21.5312C38.0447 21.8162 37.9865 22.112 37.8403 22.2397C37.6942 22.3675 37.5224 22.3252 37.5081 22.1117C37.4939 21.8981 37.7448 21.9438 37.7448 21.9438C37.7448 21.9438 37.608 21.7344 37.4431 21.9244C37.2783 22.1144 37.432 22.5066 37.7437 22.4925C38.0555 22.4781 38.2964 22.0866 38.045 21.4917C37.9088 21.1695 37.7303 20.8752 37.595 20.6723C37.6653 20.7007 37.7346 20.7294 37.8027 20.7582C38.1801 21.0146 38.3629 21.4125 38.7493 21.6713C39.21 21.9798 39.7172 21.6692 39.7172 21.6692C39.7172 21.6692 39.3496 21.2797 39.0517 20.9584ZM32.3658 10.4494C32.4137 10.4308 32.5588 10.3831 32.68 10.3889C32.8013 10.3947 32.899 10.4404 32.817 10.4701C32.7349 10.4999 32.7267 10.6424 32.691 10.6589C32.6679 10.6695 32.5921 10.7328 32.5415 10.7762C32.4297 10.6994 32.2976 10.6252 32.1505 10.5607C32.2546 10.462 32.3212 10.4668 32.3658 10.4494ZM29.0852 14.3058C29.2541 14.0823 29.5003 13.855 29.8151 13.8163C30.4538 13.7376 30.9249 14.1357 31.4166 12.4798C31.4166 12.4798 31.1554 12.8253 30.4915 12.7893C29.8274 12.7534 29.8036 12.8617 29.5302 13.4857C29.3577 13.8796 29.2141 14.0681 29.0787 14.175C29.0753 14.0745 29.0757 13.9763 29.0806 13.8812C29.1174 13.1737 29.3237 12.5184 29.6319 11.9947C29.7051 11.9643 29.7933 11.9294 29.9003 11.8895C30.3622 11.7174 30.4681 11.9956 31.0749 11.9882C31.6821 11.9808 31.7423 11.6955 31.7423 11.6955C31.7423 11.6955 31.4036 11.6288 31.1125 11.3697C30.8215 11.1106 30.6181 11.3776 30.2501 11.5785C30.0877 11.6672 29.9358 11.7019 29.8168 11.7132C30.189 11.204 30.665 10.8661 31.1605 10.8014C32.2009 10.6654 32.9266 11.2173 32.7798 11.7055C32.6328 12.1938 32.1397 12.223 31.9814 11.9314C31.8231 11.6397 32.1105 11.4769 32.1105 11.4769C32.1105 11.4769 31.8351 11.5493 31.8357 11.8789C31.8366 12.2085 32.2415 12.3954 32.6074 12.2017C32.9732 12.008 33.1779 11.4041 32.8074 11.0003C32.7516 10.9396 32.6782 10.8748 32.5907 10.8109C32.6557 10.7588 32.7541 10.686 32.7839 10.6951C32.8297 10.7092 32.9243 10.6755 33.0632 10.5847C33.202 10.4939 33.2649 10.4505 33.5172 10.5318C33.7696 10.613 34.2977 11.5277 34.5305 11.6736C34.6893 11.7731 34.9019 11.7343 35.0214 11.6995C35.0609 12.0275 35.1304 12.356 35.2613 12.5805C34.6633 12.7225 34.1179 13.0115 33.628 13.3803C33.6073 13.245 33.6076 13.0664 33.6926 12.8952C33.8617 12.5549 34.3562 12.1209 33.6329 11.3398C33.6329 11.3398 33.6667 11.5853 33.4841 11.9529C33.3019 12.3205 33.0955 12.4612 33.2817 12.9156C33.4412 13.305 33.5518 13.2809 33.5252 13.4596C32.9661 13.9002 32.4821 14.442 32.0777 14.9811C32.0721 14.7709 32.0981 14.5073 32.2276 14.2812C32.4871 13.8275 32.594 13.4211 32.2039 12.878C31.8138 12.3349 31.8181 12.1167 31.8181 12.1167C31.8181 12.1167 31.2739 12.7498 31.4433 13.6174C31.6128 14.485 31.9794 14.5306 31.9048 15.2195C31.9048 15.2195 31.9048 15.2196 31.9048 15.2197C31.1706 16.2774 30.7346 17.5777 30.1735 17.965C30.1735 17.965 29.9498 17.4938 29.7045 16.8292C29.7253 16.5711 29.7967 16.1893 30.0444 15.9413C30.4404 15.5451 30.8845 15.7047 30.9954 14.876C31.1063 14.0474 31.1408 13.9129 31.1408 13.9129C31.1408 13.9129 30.8458 14.4537 30.4025 14.6237C29.9592 14.7937 29.8447 15.1742 29.8552 15.5226C29.8632 15.7881 29.7453 16.2059 29.5689 16.4469C29.343 15.7816 29.1302 14.9968 29.0852 14.3058ZM10.8348 7.04794C10.9558 7.07846 11.0844 7.16814 11.126 7.20061C11.1647 7.23088 11.2316 7.24605 11.3048 7.3732C11.1409 7.39199 10.989 7.42498 10.8565 7.46632C10.8194 7.40886 10.7635 7.32481 10.744 7.3075C10.7138 7.28075 10.7478 7.13958 10.6759 7.08609C10.6041 7.03269 10.7138 7.01743 10.8348 7.04794ZM10.1674 11.9816C10.1674 11.9815 10.1674 11.9815 10.1674 11.9813C10.298 11.2885 10.6721 11.3535 11.0958 10.5596C11.5194 9.76567 11.1714 8.987 11.1714 8.987C11.1714 8.987 11.1109 9.20074 10.5663 9.61296C10.0218 10.0252 10.0066 10.4527 10.1276 10.9718C10.1879 11.2305 10.1356 11.4948 10.0678 11.6978C9.82957 11.0524 9.51385 10.3806 9.09414 9.78484C9.12094 9.60299 9.22254 9.65949 9.49478 9.32799C9.81245 8.94118 9.65111 8.7427 9.5805 8.33047C9.50994 7.91825 9.61578 7.68921 9.61578 7.68921C8.67281 8.23378 9.03082 8.80377 9.09638 9.18548C9.12942 9.37757 9.07683 9.5515 9.01643 9.67704C8.64378 9.17184 8.19274 8.72787 7.64622 8.4111C7.8416 8.23164 8.00728 7.93265 8.14321 7.62518C8.25048 7.69469 8.44816 7.79596 8.63376 7.74647C8.90605 7.67395 9.6965 6.9411 9.96874 6.93728C10.2411 6.93347 10.2902 6.99454 10.3999 7.12432C10.5096 7.2541 10.5927 7.31518 10.6419 7.31518C10.6739 7.31518 10.7491 7.41549 10.7978 7.48548C10.6927 7.52167 10.6013 7.56272 10.5285 7.60525C10.0444 7.88769 10.0671 8.53658 10.3696 8.83428C10.6721 9.13203 11.126 9.07096 11.2243 8.75033C11.3226 8.42969 11.0731 8.27703 11.0731 8.27703C11.0731 8.27703 11.3075 8.52133 11.0655 8.75795C10.8235 8.99463 10.3469 8.81903 10.3469 8.29991C10.3469 7.7808 11.2243 7.46017 12.2076 7.90295C12.6759 8.11383 13.0443 8.58484 13.2597 9.19149C13.1459 9.14495 13.0068 9.06586 12.8732 8.93107C12.5707 8.6257 12.4497 8.3052 12.0865 8.4705C11.7235 8.63585 11.3705 8.59966 11.3705 8.59966C11.3705 8.59966 11.3453 8.89541 11.9403 9.08369C12.5353 9.27197 12.7219 9.03277 13.1253 9.3381C13.2188 9.4089 13.2952 9.46912 13.3582 9.52061C13.5064 10.1223 13.5154 10.8218 13.3421 11.5215C13.3188 11.6154 13.29 11.7111 13.2569 11.8078C13.1554 11.6634 13.07 11.4371 13.0168 11.0023C12.9327 10.3133 12.9412 10.2007 12.2773 10.0376C11.6135 9.87447 11.4587 9.46025 11.4587 9.46025C11.4523 11.2188 12.0335 10.9718 12.6386 11.239C12.9366 11.3705 13.1115 11.665 13.2116 11.9327C12.9629 12.5922 12.5214 13.2924 12.102 13.8728C11.9999 13.5856 12.0076 13.144 12.0941 12.8878C12.2075 12.552 12.2075 12.1474 11.8218 11.8496C11.436 11.5519 11.3058 10.9374 11.3058 10.9374C11.3058 10.9374 11.2999 11.0786 11.1637 11.9183C11.0276 12.7581 11.5117 12.7352 11.7839 13.239C11.9543 13.5542 11.9115 13.9472 11.8555 14.2047C11.4174 14.7784 11.0578 15.1704 11.0578 15.1704C10.6205 14.626 10.5764 13.2303 10.1674 11.9816ZM24.0285 7.87339C24.0524 7.95349 24.0855 8.03912 24.1304 8.13032C24.1862 8.24399 24.2492 8.3444 24.3156 8.43603C24.1035 8.26959 23.5264 7.79229 23.5264 7.79229C23.6835 7.86524 23.8995 7.8751 24.0285 7.87339ZM23.3562 8.12818C23.4621 8.15106 23.5604 8.26177 23.7722 8.50989C23.9839 8.758 24.1467 8.99849 24.3244 8.92211C24.4458 8.86995 24.4806 8.72334 24.4532 8.60891C24.7416 8.94108 25.0541 9.14829 25.159 9.44752C25.1321 9.53353 25.1117 9.61415 25.0992 9.68857C25.0992 9.68857 24.1534 8.85431 23.1257 8.49358C23.156 8.41348 23.2024 8.28694 23.2124 8.23893C23.2275 8.16632 23.2502 8.10525 23.3562 8.12818ZM22.9174 8.31136C22.9439 8.22358 22.9137 8.09762 22.9137 8.09762C22.9137 8.09762 22.9931 8.05566 23.0498 8.07855C23.1065 8.10143 23.1254 8.15869 23.1406 8.25796C23.1498 8.31927 23.1318 8.42116 23.1167 8.49034C23.0333 8.4613 22.9494 8.43541 22.8656 8.41334C22.8898 8.37358 22.9099 8.33663 22.9174 8.31136ZM22.0145 8.69726C22.1121 8.77497 22.1759 8.86699 22.1841 8.97174C22.1898 9.04383 22.1798 9.109 22.1588 9.16574C22.1249 9.08707 22.0677 9.01904 21.9844 8.97694C21.9844 8.97694 22.1415 9.1348 22.0752 9.29981C21.9488 9.43221 21.7454 9.4498 21.6396 9.28474C21.4732 9.02519 21.7757 8.86485 21.7757 8.86485C21.6932 8.87896 21.6244 8.91815 21.5705 8.97207C21.5718 8.96831 21.5725 8.96468 21.5739 8.96092C21.6317 8.81254 21.8034 8.73016 22.0145 8.69726ZM18.8031 5.54157C19.0438 5.20367 19.4578 4.95761 19.8824 4.75989C19.4231 5.03213 19.1393 5.52688 18.9392 5.87231C18.769 6.16638 18.4814 6.38212 18.2364 6.5243C18.2196 6.43595 18.2024 6.34575 18.1854 6.25454C18.3533 6.09673 18.5756 5.86105 18.8031 5.54157ZM20.9306 15.319C20.794 14.4639 19.6998 13.8893 18.4401 12.9312C17.4707 12.1939 17.5217 11.1335 17.8028 10.3461C18.0789 10.2298 18.5537 10.0965 18.8409 10.3916C19.2645 10.8267 18.372 11.2314 18.8409 12.1322C19.3099 13.0329 19.8167 13.4223 19.8167 13.4223C19.8167 13.4223 20.3915 12.178 19.9074 11.5215C19.4234 10.8649 19.4234 10.9635 19.2947 10.3532C19.1905 9.85821 18.6545 9.49481 18.1402 9.65768C18.1726 9.60795 18.2048 9.56223 18.2359 9.52137C18.3792 9.33314 18.6371 9.16164 18.9399 9.0125C19.1191 9.0476 19.2833 9.12545 19.3553 9.2847C19.552 9.7198 19.03 10.5214 20.6109 10.6893C20.6109 10.6893 20.8075 10.1501 20.21 9.61815C19.6705 9.1378 19.3592 9.19068 19.3039 8.8514C19.9399 8.59714 20.6471 8.43665 20.921 8.41434C21.1266 8.39765 21.3888 8.42931 21.6211 8.50231C21.1346 8.83195 21.2399 9.53543 21.6477 9.7127C21.8821 9.81454 22.0446 9.74717 22.2031 9.62812C22.4625 9.4529 22.5351 9.02743 22.3818 8.68458C22.5712 8.69783 22.7599 8.73817 22.9072 8.79686C23.1558 8.89598 23.7687 9.2487 24.2886 9.66922C24.1409 9.9725 23.8663 9.83399 23.2282 10.1319C22.5217 10.4618 22.552 11.025 22.552 11.025C24.0707 11.318 23.8119 10.4152 24.118 10.062C24.2301 9.93283 24.405 9.90637 24.5816 9.92448C24.8213 10.1511 25.0127 10.386 25.0929 10.604C25.1101 10.6513 25.1271 10.7034 25.1432 10.7595C24.7107 10.4596 24.1091 10.6485 23.8719 11.0842C23.5796 11.6217 23.6074 11.529 22.9711 12.0084C22.3349 12.4878 22.5176 13.8221 22.5176 13.8221C22.5176 13.8221 23.0993 13.6005 23.7907 12.887C24.4821 12.1735 23.766 11.5383 24.2834 11.2499C24.6342 11.0543 25.0383 11.3151 25.2623 11.5032C25.301 12.3241 25.0483 13.3359 23.9376 13.753C22.4754 14.302 21.283 14.5294 20.9306 15.319Z" fill="#26A668"/>
<path d="M28.8727 5.32634C28.8835 5.30612 28.8866 5.29291 28.8866 5.29291C28.882 5.30455 28.8773 5.31491 28.8727 5.32634Z" fill="#26A668"/>
</g>
<defs>
<clipPath id="clip0_212_24">
<rect width="40" height="40" fill="white"/>
</clipPath>
</defs>
</svg>
